<svg width="90" height="90" viewBox="0 0 90 90" fill="none" xmlns="http://www.w3.org/2000/svg">
<path fill-rule="evenodd" clip-rule="evenodd" d="M5 5H85V85H5V5ZM0 5C0 2.23858 2.23858 0 5 0H85C87.7614 0 90 2.23858 90 5V85C90 87.7614 87.7614 90 85 90H5C2.23858 90 0 87.7614 0 85V5ZM24.0835 43.8784H21.4819V44.8901V46.2993V47.2749H24.0835C25.0832 47.2749 25.9504 47.4315 26.6851 47.7446C27.4198 48.0457 27.9858 48.5155 28.3833 49.1538C28.7808 49.7922 28.9795 50.6232 28.9795 51.647C28.9795 52.5503 28.7988 53.3211 28.4375 53.9595C28.0882 54.5978 27.5824 55.0796 26.9199 55.4048C26.2575 55.73 25.4686 55.8926 24.5532 55.8926C23.686 55.8926 22.9152 55.724 22.2407 55.3867C21.5783 55.0495 21.0604 54.5858 20.687 53.9956C20.3257 53.3934 20.145 52.7008 20.145 51.918H15.791C15.791 53.1465 16.0259 54.2305 16.4956 55.1699C16.9774 56.0973 17.6278 56.8742 18.4468 57.5005C19.2658 58.1147 20.1932 58.5784 21.229 58.8916C22.2648 59.2048 23.3488 59.3613 24.481 59.3613C25.7456 59.3613 26.9139 59.1927 27.9858 58.8555C29.0698 58.5182 30.0153 58.0184 30.8223 57.356C31.6292 56.6935 32.2495 55.8866 32.6831 54.9351C33.1287 53.9715 33.3516 52.8755 33.3516 51.647C33.3516 50.7437 33.189 49.8885 32.8638 49.0815C32.5506 48.2746 32.0508 47.5579 31.3643 46.9316C30.7135 46.3265 29.8787 45.8459 28.86 45.4897C29.6444 45.1311 30.3165 44.6964 30.8765 44.1855C31.563 43.5472 32.0809 42.8426 32.4302 42.0718C32.7795 41.3009 32.9541 40.5422 32.9541 39.7954C32.9541 38.1574 32.5988 36.7843 31.8882 35.6763C31.1776 34.5682 30.1839 33.7371 28.9072 33.1831C27.6426 32.617 26.1611 32.334 24.4629 32.334C22.873 32.334 21.4398 32.6471 20.1631 33.2734C18.8984 33.8877 17.8988 34.7368 17.1641 35.8208C16.4294 36.9048 16.062 38.1453 16.062 39.5425H20.4341C20.4341 38.7716 20.6147 38.1092 20.9761 37.5552C21.3374 36.9891 21.8252 36.5555 22.4395 36.2544C23.0658 35.9412 23.7643 35.7847 24.5352 35.7847C25.4505 35.7847 26.2033 35.9473 26.7935 36.2725C27.3957 36.5977 27.8413 37.0614 28.1304 37.6636C28.4315 38.2537 28.582 38.9644 28.582 39.7954C28.582 40.5903 28.4194 41.2949 28.0942 41.9092C27.769 42.5234 27.2692 43.0052 26.5947 43.3545C25.9323 43.7038 25.0952 43.8784 24.0835 43.8784ZM38.5005 45.9199L41.9692 46.769C42.439 46.3234 42.9448 45.95 43.4868 45.6489C44.0409 45.3478 44.8358 45.1973 45.8716 45.1973C46.6424 45.1973 47.3229 45.3298 47.9131 45.5947C48.5033 45.8477 48.991 46.209 49.3765 46.6787C49.7739 47.1484 50.069 47.7025 50.2617 48.3408C50.4665 48.9792 50.5688 49.6838 50.5688 50.4546C50.5688 51.2616 50.4785 51.9963 50.2979 52.6587C50.1292 53.3211 49.8643 53.8993 49.5029 54.3931C49.1536 54.8748 48.714 55.2482 48.1841 55.5132C47.6541 55.7661 47.0218 55.8926 46.2871 55.8926C45.4801 55.8926 44.7695 55.736 44.1553 55.4229C43.541 55.1097 43.0472 54.658 42.6738 54.0679C42.3125 53.4657 42.0776 52.737 41.9692 51.8818H37.7056C37.7778 53.0983 38.0549 54.1763 38.5366 55.1157C39.0184 56.0431 39.6567 56.826 40.4517 57.4644C41.2466 58.0907 42.1439 58.5664 43.1436 58.8916C44.1553 59.2048 45.2091 59.3613 46.3052 59.3613C47.7746 59.3613 49.0452 59.1385 50.1172 58.6929C51.2012 58.2352 52.0985 57.6029 52.8091 56.7959C53.5197 55.9889 54.0496 55.0555 54.3989 53.9956C54.7603 52.9357 54.9409 51.7975 54.9409 50.5811C54.9409 49.2201 54.7603 47.9976 54.3989 46.9136C54.0376 45.8175 53.5137 44.8901 52.8271 44.1313C52.1406 43.3605 51.3035 42.7764 50.3159 42.3789C49.3403 41.9694 48.2323 41.7646 46.9917 41.7646C46.0643 41.7646 45.2393 41.8851 44.5166 42.126C43.7939 42.3548 43.2279 42.5897 42.8184 42.8306L43.541 36.3809H54.1099V32.6953H39.9277L38.5005 45.9199ZM75.6631 48.5034V44.583H68.7617V37.2119H64.5522V44.583H57.6328V48.5034H64.5522V56.3623H68.7617V48.5034H75.6631Z" fill="white"/>
</svg>
