<svg width="90" height="90" viewBox="0 0 90 90" fill="none" xmlns="http://www.w3.org/2000/svg">
<path d="M23.4829 43.6958H25.9438C26.9009 43.6958 27.6927 43.5306 28.3193 43.2002C28.9574 42.8698 29.4302 42.4141 29.7378 41.833C30.0454 41.252 30.1992 40.5854 30.1992 39.8335C30.1992 39.0474 30.0568 38.3752 29.772 37.8169C29.4985 37.2472 29.077 36.8086 28.5073 36.501C27.9491 36.1934 27.237 36.0396 26.3711 36.0396C25.6419 36.0396 24.9811 36.1877 24.3887 36.4839C23.8076 36.7687 23.3462 37.1789 23.0044 37.7144C22.6626 38.2384 22.4917 38.8651 22.4917 39.5942H18.356C18.356 38.2726 18.7035 37.0991 19.3984 36.0737C20.0934 35.0483 21.0391 34.2451 22.2354 33.6641C23.443 33.0716 24.7988 32.7754 26.3027 32.7754C27.9092 32.7754 29.3105 33.0431 30.5068 33.5786C31.7145 34.1027 32.6545 34.8888 33.3267 35.937C33.9989 36.9852 34.335 38.284 34.335 39.8335C34.335 40.5399 34.1698 41.2576 33.8394 41.9868C33.509 42.716 33.019 43.3825 32.3696 43.9863C31.7202 44.5788 30.9113 45.063 29.9429 45.439C28.9744 45.8035 27.8522 45.9858 26.5762 45.9858H23.4829V43.6958ZM23.4829 46.9087V44.6528H26.5762C28.0345 44.6528 29.2764 44.8237 30.3018 45.1655C31.3385 45.5073 32.1816 45.9801 32.8311 46.584C33.4805 47.1764 33.9533 47.8543 34.2495 48.6177C34.5571 49.381 34.7109 50.1899 34.7109 51.0444C34.7109 52.2065 34.5002 53.2433 34.0786 54.1548C33.6685 55.0549 33.0817 55.8182 32.3184 56.4448C31.555 57.0715 30.6606 57.5443 29.6353 57.8633C28.6213 58.1823 27.5161 58.3418 26.3198 58.3418C25.2489 58.3418 24.2235 58.1937 23.2437 57.8975C22.2638 57.6012 21.3866 57.1626 20.6118 56.5815C19.8371 55.9891 19.2218 55.2542 18.7661 54.377C18.3218 53.4883 18.0996 52.4629 18.0996 51.3008H22.2183C22.2183 52.0413 22.3892 52.6965 22.731 53.2661C23.0841 53.8244 23.5741 54.263 24.2007 54.582C24.8387 54.901 25.5679 55.0605 26.3882 55.0605C27.2541 55.0605 28.0003 54.9067 28.627 54.5991C29.2536 54.2915 29.7321 53.8358 30.0625 53.2319C30.4043 52.6281 30.5752 51.8989 30.5752 51.0444C30.5752 50.076 30.3872 49.2899 30.0112 48.686C29.6353 48.0822 29.0998 47.6379 28.4048 47.353C27.7098 47.0568 26.8895 46.9087 25.9438 46.9087H23.4829ZM42.8628 46.4302L39.5815 45.627L40.9316 33.1172H54.3472V36.6035H44.3496L43.666 42.7046C44.0534 42.4767 44.5889 42.2546 45.2725 42.0381C45.9561 41.8102 46.7365 41.6963 47.6138 41.6963C48.7873 41.6963 49.8354 41.89 50.7583 42.2773C51.6925 42.6533 52.4844 43.2059 53.1338 43.9351C53.7832 44.6528 54.2788 45.5301 54.6206 46.5669C54.9624 47.5923 55.1333 48.7487 55.1333 50.0361C55.1333 51.1868 54.9624 52.2635 54.6206 53.2661C54.2902 54.2687 53.7889 55.1517 53.1167 55.915C52.4445 56.6784 51.5957 57.2765 50.5703 57.7095C49.5563 58.131 48.3543 58.3418 46.9644 58.3418C45.9276 58.3418 44.9307 58.1937 43.9736 57.8975C43.028 57.5898 42.1792 57.1398 41.4272 56.5474C40.6753 55.9435 40.0715 55.203 39.6157 54.3257C39.16 53.437 38.8979 52.4173 38.8296 51.2666H42.8628C42.9653 52.0755 43.1875 52.7648 43.5293 53.3345C43.8825 53.8927 44.3496 54.32 44.9307 54.6162C45.5117 54.9124 46.1839 55.0605 46.9473 55.0605C47.6423 55.0605 48.2404 54.9409 48.7417 54.7017C49.243 54.451 49.6589 54.0978 49.9893 53.6421C50.3311 53.175 50.5817 52.6281 50.7412 52.0015C50.9121 51.3748 50.9976 50.6799 50.9976 49.9165C50.9976 49.1873 50.9007 48.5208 50.707 47.917C50.5247 47.3132 50.2456 46.7891 49.8696 46.3447C49.505 45.9004 49.0436 45.5586 48.4854 45.3193C47.9271 45.0687 47.2834 44.9434 46.5542 44.9434C45.5744 44.9434 44.8224 45.0858 44.2983 45.3706C43.7856 45.6554 43.3071 46.0086 42.8628 46.4302ZM74.7354 44.3623V48.0708H57.6797V44.3623H74.7354ZM68.207 37.3896V55.5049H64.2251V37.3896H68.207Z" fill="white"/>
<circle cx="45" cy="45" r="42.5" stroke="white" stroke-width="5"/>
</svg>
