<svg width="90" height="90" viewBox="0 0 90 90" fill="none" xmlns="http://www.w3.org/2000/svg">
<path fill-rule="evenodd" clip-rule="evenodd" d="M85 5H5V85H85V5ZM5 0C2.23858 0 0 2.23858 0 5V85C0 87.7614 2.23858 90 5 90H85C87.7614 90 90 87.7614 90 85V5C90 2.23858 87.7614 0 85 0H5ZM58.584 41.3611C59.5933 40.419 59.6479 38.837 58.7058 37.8277C57.7637 36.8183 56.1817 36.7637 55.1724 37.7058L40.8621 51.0621L32.7678 42.9677C31.7915 41.9914 30.2085 41.9914 29.2322 42.9677C28.2559 43.944 28.2559 45.527 29.2322 46.5033L38.6967 55.9677C39.1244 56.3954 39.6685 56.6358 40.227 56.6887C41.0711 56.9755 42.0418 56.8004 42.7392 56.1495L58.584 41.3611ZM66 45.5C66 57.3741 56.3741 67 44.5 67C32.6259 67 23 57.3741 23 45.5C23 33.6259 32.6259 24 44.5 24C56.3741 24 66 33.6259 66 45.5ZM71 45.5C71 60.1355 59.1355 72 44.5 72C29.8645 72 18 60.1355 18 45.5C18 30.8645 29.8645 19 44.5 19C59.1355 19 71 30.8645 71 45.5Z" fill="white"/>
</svg>
