<svg width="92" height="92" viewBox="0 0 92 92" fill="none" xmlns="http://www.w3.org/2000/svg">
<path d="M33.3272 3.68L28.1597 7.36L28.5288 14.9653C28.7749 21.9573 29.0209 22.6933 31.6047 23.0613C33.3272 23.3067 34.3115 24.288 34.3115 25.76C34.3115 26.9867 35.788 29.6853 37.5105 31.7707L40.5864 35.4507L36.5262 37.168C33.2042 38.5173 31.9738 38.5173 29.3901 37.168C25.0838 34.96 12.9031 35.2053 8.35079 37.536C2.56807 40.48 0.599481 47.7173 2.19896 60.352C2.32199 60.8427 3.42932 61.5787 4.78273 61.9467C6.13613 62.3147 7.24346 63.4187 7.24346 64.4C7.24346 65.2587 8.7199 67.8347 10.4424 69.92C13.8874 73.8453 13.7644 76.544 10.3194 73.1093C7.73561 70.5333 5.64398 70.656 2.19896 73.4773C-0.261776 75.44 -0.507849 76.176 0.722518 78.8747C1.46074 80.4693 1.82985 84.1493 1.46074 86.9707L0.722518 92H18.8089H36.7723V86.9707C36.7723 83.168 36.034 81.2053 33.2042 78.384C31.2356 76.4213 28.6518 74.8267 27.6675 74.8267C24.9607 74.8267 25.2068 72.864 28.1597 69.92C29.5131 68.5707 30.6204 66.4853 30.6204 65.2587C30.6204 64.1547 31.8508 62.56 33.4503 61.9467C35.788 60.8427 36.1571 59.616 36.5262 52.992C36.6492 48.8213 36.2801 44.2827 35.5419 42.9333C34.5576 40.9707 34.5576 40.48 35.911 40.48C36.8953 40.48 38.3717 42.0747 39.233 44.16C40.9555 48.3307 41.3246 48.576 44.1545 46C46 44.2827 46.3691 44.2827 47.8455 46C50.0602 48.6987 51.0445 48.3307 52.767 44.16C54.2435 40.6027 56.3351 39.4987 58.0576 41.3387C58.5497 41.7067 58.0576 43.056 57.0733 44.16C55.7199 45.632 55.3508 48.3307 55.4738 53.4827C55.8429 59.616 56.212 60.8427 58.6728 61.9467C60.1492 62.56 61.3796 64.032 61.3796 65.0133C61.3796 66.1173 62.4869 68.2027 63.8403 69.6747C66.7932 72.864 67.0393 74.8267 64.3325 74.8267C63.3482 74.8267 60.7644 76.4213 58.7958 78.384C55.966 81.2053 55.2277 83.168 55.2277 86.9707V92H73.1911H91.2775L90.5393 86.9707C90.1702 84.1493 90.5393 80.4693 91.2775 78.8747C92.5078 76.176 92.2618 75.44 89.801 73.4773C86.356 70.656 84.2644 70.5333 81.6806 73.1093C78.2356 76.544 78.1126 73.8453 81.5576 69.92C83.2801 67.8347 84.7565 65.2587 84.7565 64.4C84.7565 63.4187 85.8639 62.3147 87.2173 61.9467C88.5707 61.5787 89.678 60.8427 89.801 60.352C89.801 59.8613 90.0471 56.4267 90.2932 52.7467C90.7853 46.368 90.5393 45.8773 85.8639 41.4613C79.0969 34.96 69.2539 33.7333 63.8403 38.7627C62.1178 40.2347 61.1335 40.112 56.7042 37.904L51.5366 35.328L54.6126 31.648C56.3351 29.6853 57.6885 26.9867 57.6885 25.6373C57.6885 24.1653 58.5497 23.3067 60.1492 23.3067C61.5026 23.3067 62.6099 23.184 62.733 22.9387C62.733 22.816 63.1021 19.2587 63.3482 14.9653C63.8403 7.728 63.7173 6.992 60.2723 3.68C56.9503 0.245335 55.966 1.68383e-06 47.4764 1.68383e-06C39.356 1.68383e-06 37.8796 0.368002 33.3272 3.68ZM55.8429 3.68C59.1649 4.90667 61.7487 9.81333 60.6414 12.88C60.1492 14.1067 58.1806 14.72 54.1204 14.72C49.445 14.72 47.7225 14.1067 45.3848 11.6533C41.8168 7.85067 41.6937 7.85067 37.2644 11.6533C33.0812 15.2107 32.3429 15.3333 31.3586 12.7573C28.7749 6.01067 45.5079 -0.245332 55.8429 3.68ZM44.0314 14.5973C45.3848 15.9467 48.4607 17.4187 50.7984 17.9093C54.6126 18.5227 55.2277 19.136 55.2277 22.08C55.2277 24.0427 53.8743 27.232 52.1518 29.1947C50.4293 31.28 49.0759 33.6107 49.0759 34.592C49.0759 35.5733 48.4607 36.9227 47.5995 37.7813C45.877 39.4987 42.9241 37.536 42.9241 34.7147C42.9241 33.7333 41.5707 31.28 39.8482 29.1947C36.034 24.7787 35.5419 16.56 38.9869 13.984C41.6937 11.8987 41.3246 11.8987 44.0314 14.5973ZM34.3115 19.6267C34.3115 20.24 33.8194 20.8533 33.2042 20.8533C32.466 20.8533 31.6047 20.24 31.2356 19.6267C30.8665 18.8907 31.3586 18.4 32.3429 18.4C33.4503 18.4 34.3115 18.8907 34.3115 19.6267ZM60.7644 19.6267C60.3953 20.24 59.534 20.8533 58.7958 20.8533C58.1806 20.8533 57.6885 20.24 57.6885 19.6267C57.6885 18.8907 58.5497 18.4 59.6571 18.4C60.6414 18.4 61.1335 18.8907 60.7644 19.6267ZM27.5445 39.8667C32.3429 41.8293 34.9267 46.6133 33.6963 51.3973L32.9581 54.3413L29.8822 51.152C28.1597 49.312 26.0681 47.84 25.0838 47.84C22.623 47.84 22.7461 49.0667 25.3298 51.0293C29.3901 53.8507 25.5759 54.5867 20.6545 51.888L15.733 49.1893L11.5497 51.6427C6.50524 54.7093 4.78273 53.8507 4.78273 48.576C4.78273 44.6507 7.98168 40.3573 12.1649 38.8853C15.733 37.536 23.3613 38.0267 27.5445 39.8667ZM82.6649 42.4427C86.7251 45.1413 87.3403 46.1227 86.9712 49.4347C86.6021 53.2373 86.4791 53.36 80.5733 53.2373C75.8979 53.2373 74.0524 52.624 72.3298 50.5387C69.623 47.104 68.0236 47.104 63.1021 50.9067C59.288 53.728 59.0419 53.8507 58.3037 51.6427C57.0733 47.472 57.8115 46.6133 69.377 39.4987C72.4529 37.6587 76.6361 38.5173 82.6649 42.4427ZM42.678 42.32C42.3089 42.688 41.5707 42.0747 41.2016 40.848C40.4634 39.1307 40.5864 39.008 41.8168 40.112C42.678 40.9707 43.0471 41.952 42.678 42.32ZM50.6754 41.0933C50.3063 42.1973 49.6911 42.8107 49.445 42.4427C49.0759 42.0747 49.199 41.3387 49.6911 40.6027C50.7984 38.64 51.5366 39.008 50.6754 41.0933ZM78.8508 56.4267C82.5419 56.4267 82.6649 56.5493 81.9267 61.5787C81.4346 65.0133 80.3272 67.4667 78.7277 68.5707C77.2513 69.4293 76.144 71.1467 76.144 72.3733C76.144 75.072 73.0681 77.7707 71.2225 76.6667C70.6073 76.2987 69.9921 75.072 69.9921 73.968C69.9921 72.9867 68.6387 70.5333 66.9162 68.448C63.2251 64.1547 62.733 56.5493 65.9319 52.8693C67.9005 50.416 68.0236 50.416 71.5916 53.4827C73.5602 55.2 76.6361 56.4267 78.8508 56.4267ZM18.8089 54.5867C20.1623 55.568 22.7461 56.4267 24.7147 56.4267C27.7906 56.4267 28.1597 56.7947 28.1597 60.5973C28.1597 63.296 27.0524 66.1173 25.2068 68.3253C23.6073 70.288 22.0079 73.232 21.7618 74.8267C21.1466 79.488 16.5942 78.9973 16.1021 74.2133C15.856 72.128 14.9948 69.92 14.1335 69.3067C9.21205 65.504 8.35079 57.6533 12.534 54.832C15.856 52.3787 15.9791 52.3787 18.8089 54.5867ZM7.24346 57.6533C7.24346 58.2667 6.75131 58.88 6.01309 58.88C5.39791 58.88 4.78273 58.2667 4.78273 57.6533C4.78273 56.9173 5.39791 56.4267 6.01309 56.4267C6.75131 56.4267 7.24346 56.9173 7.24346 57.6533ZM34.3115 57.6533C34.3115 58.2667 33.4503 58.88 32.466 58.88C31.4817 58.88 30.6204 58.2667 30.6204 57.6533C30.6204 56.9173 31.4817 56.4267 32.466 56.4267C33.4503 56.4267 34.3115 56.9173 34.3115 57.6533ZM61.3796 57.6533C61.3796 58.2667 60.5183 58.88 59.534 58.88C58.5497 58.88 57.6885 58.2667 57.6885 57.6533C57.6885 56.9173 58.5497 56.4267 59.534 56.4267C60.5183 56.4267 61.3796 56.9173 61.3796 57.6533ZM87.2173 57.6533C87.2173 58.2667 86.7251 58.88 85.9869 58.88C85.3717 58.88 84.7565 58.2667 84.7565 57.6533C84.7565 56.9173 85.3717 56.4267 85.9869 56.4267C86.7251 56.4267 87.2173 56.9173 87.2173 57.6533ZM8.47383 75.9307C8.47383 77.28 3.6754 78.5067 2.93718 77.28C2.6911 76.7893 2.6911 76.0533 3.18325 75.5627C4.41362 74.4587 8.47383 74.704 8.47383 75.9307ZM88.9398 75.9307C89.3089 76.4213 89.3089 77.28 88.9398 77.648C87.9555 78.5067 83.5262 77.1573 83.5262 75.9307C83.5262 74.4587 88.0785 74.4587 88.9398 75.9307ZM20.5314 81.328C21.6387 80.96 23.2382 79.856 23.9764 78.8747C27.0524 75.1947 36.2801 84.0267 33.6963 88.1973C33.2042 89.056 27.4215 89.5467 18.8089 89.5467H4.78273V85.8667C4.78273 83.0453 5.64398 81.5733 8.7199 79.7333C12.534 77.5253 12.6571 77.5253 15.4869 79.7333C17.0864 80.96 19.4241 81.696 20.5314 81.328ZM69.9921 79.856C69.9921 80.592 69.5 80.7147 68.7618 80.3467C68.1466 79.9787 67.5314 78.9973 67.5314 78.384C67.5314 77.648 68.1466 77.5253 68.7618 77.8933C69.5 78.2613 69.9921 79.2427 69.9921 79.856ZM77.8665 79.12C77.3743 80.1013 76.5131 80.96 75.8979 80.96C75.1597 80.96 75.2827 80.224 76.144 79.12C77.0052 78.1387 77.8665 77.28 78.1126 77.28C78.3586 77.28 78.2356 78.1387 77.8665 79.12ZM66.178 82.9227L67.7775 87.3387L70.4843 84.7627L73.3141 82.1867L75.5288 84.64C77.7435 87.0933 77.7435 87.0933 79.712 82.8C81.5576 78.6293 81.8037 78.5067 84.5105 80.3467C86.233 81.696 87.2173 83.536 87.2173 85.9893V89.5467H73.0681C61.8717 89.5467 58.6728 89.1787 58.1806 87.8293C57.0733 85.1307 61.1335 78.6293 63.8403 78.5067C64.3325 78.5067 65.3168 80.4693 66.178 82.9227Z" fill="white"/>
<path d="M42.3089 25.8825C41.4476 27.2318 44.5235 28.5812 47.2304 27.9678C48.3377 27.8452 49.322 27.1092 49.445 26.3732C49.8141 24.7785 43.1701 24.2878 42.3089 25.8825Z" fill="white"/>
<path d="M69.3769 63.5413C67.7775 65.136 69.0078 66.24 72.4528 66.24C74.5445 66.24 76.1439 65.7493 76.1439 65.136C76.1439 63.9093 70.3612 62.56 69.3769 63.5413Z" fill="white"/>
<path d="M18.6859 63.5413C17.0864 63.7867 15.8561 64.5227 15.8561 65.136C15.8561 66.608 21.6388 66.608 22.6231 65.136C23.4844 63.5413 22.0079 62.928 18.6859 63.5413Z" fill="white"/>
<path d="M19.424 5.64268C19.301 6.25602 19.301 7.11468 19.424 7.60535C19.424 8.21868 18.3167 8.58668 16.8403 8.58668C11.0576 8.58668 10.3193 10.304 10.3193 21.5894C10.3193 29.072 10.8115 32.384 11.9188 32.752C13.0261 33.2427 13.3953 30.6667 13.3953 22.816C13.3953 12.2667 13.3953 12.2667 16.5942 12.2667C18.3167 12.2667 19.424 12.7574 18.9319 13.3707C17.4555 15.9467 20.6544 15.7014 23.1151 13.0027L25.6989 10.304L22.623 7.36002C20.9005 5.76535 19.424 5.02935 19.424 5.64268Z" fill="white"/>
<path d="M67.1623 9.32284C65.5628 10.9175 67.7774 12.2668 71.9607 12.2668H76.1439V19.7495C76.1439 23.9202 75.6518 26.8642 75.0366 26.3735C72.4528 24.9015 72.3298 28.5815 74.7905 31.0348L77.3743 33.6108L79.9581 31.0348C82.4188 28.5815 82.2958 24.9015 79.712 26.3735C79.0968 26.8642 78.6047 23.7975 78.6047 19.3815C78.6047 14.8428 77.9895 10.9175 77.1282 10.0588C75.5288 8.46417 68.5157 7.97351 67.1623 9.32284Z" fill="white"/>
<path d="M42.555 52.2559C39.4791 56.4266 40.3404 59.2479 45.1388 60.7199C50.4294 62.1919 50.1833 64.2773 44.7697 63.4186C40.4634 62.6826 38.7409 64.3999 42.3089 65.7493C43.2932 66.2399 44.1545 67.2213 44.1545 68.2026C44.1545 69.1839 45.0158 69.9199 46 69.9199C46.9843 69.9199 47.8456 69.1839 47.8456 68.2026C47.8456 67.2213 48.7069 66.2399 49.6911 65.7493C51.9058 64.8906 52.1519 61.2106 50.0603 59.1253C49.199 58.2666 47.3535 57.6533 45.754 57.6533C44.1545 57.6533 42.9241 57.0399 42.9241 56.3039C42.9241 55.3226 44.4006 55.0773 47.2304 55.5679C52.1519 56.3039 52.398 55.6906 49.199 51.7653C46.2461 48.3306 45.2618 48.4533 42.555 52.2559Z" fill="white"/>
</svg>
