<svg xmlns="http://www.w3.org/2000/svg" width="92" height="92" fill="none"><path fill="#fff" d="M33.327 3.68 28.16 7.36l.369 7.605c.246 6.992.492 7.728 3.076 8.096 1.722.246 2.707 1.227 2.707 2.699 0 1.227 1.476 3.925 3.199 6.01l3.075 3.68-4.06 1.718c-3.322 1.35-4.552 1.35-7.136 0-4.306-2.208-16.487-1.963-21.04.368C2.569 40.48.6 47.717 2.2 60.352c.123.49 1.23 1.227 2.584 1.595 1.353.368 2.46 1.472 2.46 2.453 0 .859 1.477 3.435 3.2 5.52 3.444 3.925 3.321 6.624-.124 3.19-2.583-2.577-4.675-2.454-8.12.367-2.46 1.963-2.707 2.699-1.476 5.398.738 1.594 1.107 5.274.738 8.096L.723 92h36.049v-5.03c0-3.802-.738-5.765-3.568-8.586-1.968-1.963-4.552-3.557-5.537-3.557-2.706 0-2.46-1.963.493-4.907 1.353-1.35 2.46-3.435 2.46-4.661 0-1.104 1.23-2.699 2.83-3.312 2.338-1.104 2.707-2.331 3.076-8.955.123-4.17-.246-8.71-.984-10.059-.984-1.962-.984-2.453.369-2.453.984 0 2.46 1.595 3.322 3.68 1.723 4.17 2.092 4.416 4.922 1.84 1.845-1.717 2.214-1.717 3.69 0 2.215 2.699 3.2 2.33 4.922-1.84 1.476-3.557 3.568-4.661 5.29-2.821.493.368 0 1.717-.984 2.821-1.353 1.472-1.722 4.17-1.6 9.323.37 6.133.739 7.36 3.2 8.464 1.476.613 2.707 2.085 2.707 3.066 0 1.104 1.107 3.19 2.46 4.662 2.953 3.189 3.2 5.152.492 5.152-.984 0-3.568 1.594-5.536 3.557-2.83 2.821-3.568 4.784-3.568 8.587V92h36.05l-.739-5.03c-.369-2.82 0-6.5.739-8.095 1.23-2.699.984-3.435-1.477-5.398-3.445-2.821-5.537-2.944-8.12-.368-3.445 3.435-3.568.736-.123-3.189 1.722-2.085 3.198-4.661 3.198-5.52 0-.981 1.108-2.085 2.461-2.453 1.354-.368 2.461-1.104 2.584-1.595 0-.49.246-3.925.492-7.605.492-6.379.246-6.87-4.43-11.286-6.766-6.501-16.61-7.728-22.023-2.698-1.722 1.472-2.707 1.349-7.136-.859l-5.167-2.576 3.076-3.68c1.722-1.963 3.075-4.661 3.075-6.01 0-1.473.862-2.331 2.461-2.331 1.354 0 2.46-.123 2.584-.368 0-.123.37-3.68.615-7.974.492-7.237.37-7.973-3.076-11.285C56.95.245 55.966 0 47.476 0c-8.12 0-9.596.368-14.149 3.68Zm22.516 0c3.322 1.227 5.906 6.133 4.798 9.2-.492 1.227-2.46 1.84-6.52 1.84-4.676 0-6.399-.613-8.736-3.067-3.568-3.802-3.691-3.802-8.12 0-4.184 3.558-4.922 3.68-5.906 1.104C28.775 6.011 45.508-.245 55.843 3.68ZM44.03 14.597c1.354 1.35 4.43 2.822 6.767 3.312 3.815.614 4.43 1.227 4.43 4.171 0 1.963-1.354 5.152-3.076 7.115-1.723 2.085-3.076 4.416-3.076 5.397 0 .981-.615 2.33-1.477 3.19-1.722 1.717-4.675-.246-4.675-3.067 0-.982-1.353-3.435-3.076-5.52-3.814-4.416-4.306-12.635-.861-15.211 2.707-2.085 2.338-2.085 5.044.613Zm-9.72 5.03c0 .613-.492 1.226-1.107 1.226-.738 0-1.6-.613-1.968-1.226-.37-.736.123-1.227 1.107-1.227 1.107 0 1.968.49 1.968 1.227Zm26.453 0c-.369.613-1.23 1.226-1.968 1.226-.615 0-1.108-.613-1.108-1.226 0-.736.862-1.227 1.97-1.227.983 0 1.475.49 1.106 1.227Zm-33.22 20.24c4.799 1.962 7.383 6.746 6.152 11.53l-.738 2.944-3.076-3.189c-1.722-1.84-3.814-3.312-4.798-3.312-2.461 0-2.338 1.227.246 3.19 4.06 2.82.246 3.557-4.675.858l-4.922-2.699-4.183 2.454c-5.045 3.066-6.767 2.208-6.767-3.067 0-3.925 3.199-8.219 7.382-9.69 3.568-1.35 11.196-.86 15.38.98Zm55.12 2.576c4.061 2.698 4.676 3.68 4.307 6.992-.369 3.802-.492 3.925-6.398 3.802-4.675 0-6.52-.613-8.243-2.698-2.707-3.435-4.306-3.435-9.228.368-3.814 2.821-4.06 2.944-4.798.736-1.23-4.171-.492-5.03 11.073-12.144 3.076-1.84 7.26-.982 13.288 2.944Zm-39.986-.123c-.37.368-1.107-.245-1.476-1.472-.739-1.717-.616-1.84.615-.736.861.859 1.23 1.84.861 2.208Zm7.997-1.227c-.369 1.104-.984 1.718-1.23 1.35-.37-.368-.246-1.104.246-1.84 1.107-1.963 1.846-1.595.984.49Zm28.176 15.334c3.69 0 3.814.122 3.076 5.152-.492 3.434-1.6 5.888-3.2 6.992-1.476.858-2.583 2.576-2.583 3.802 0 2.699-3.076 5.398-4.922 4.294-.615-.368-1.23-1.595-1.23-2.699 0-.981-1.353-3.435-3.076-5.52-3.69-4.293-4.183-11.899-.984-15.579 1.968-2.453 2.092-2.453 5.66.614 1.968 1.717 5.044 2.944 7.259 2.944Zm-60.042-1.84c1.353.981 3.937 1.84 5.906 1.84 3.076 0 3.445.368 3.445 4.17 0 2.699-1.108 5.52-2.953 7.728-1.6 1.963-3.2 4.907-3.445 6.502-.615 4.661-5.168 4.17-5.66-.614-.246-2.085-1.107-4.293-1.969-4.906-4.92-3.803-5.782-11.654-1.599-14.475 3.322-2.453 3.445-2.453 6.275-.245ZM7.243 57.653c0 .614-.492 1.227-1.23 1.227-.615 0-1.23-.613-1.23-1.227 0-.736.615-1.226 1.23-1.226.738 0 1.23.49 1.23 1.226Zm27.069 0c0 .614-.862 1.227-1.846 1.227-.984 0-1.846-.613-1.846-1.227 0-.736.862-1.226 1.846-1.226.984 0 1.846.49 1.846 1.226Zm27.068 0c0 .614-.862 1.227-1.846 1.227-.984 0-1.846-.613-1.846-1.227 0-.736.862-1.226 1.846-1.226.984 0 1.846.49 1.846 1.226Zm25.837 0c0 .614-.492 1.227-1.23 1.227-.615 0-1.23-.613-1.23-1.227 0-.736.615-1.226 1.23-1.226.738 0 1.23.49 1.23 1.226ZM8.474 75.931c0 1.349-4.799 2.576-5.537 1.349-.246-.49-.246-1.227.246-1.717 1.23-1.104 5.29-.859 5.29.368Zm80.466 0c.369.49.369 1.349 0 1.717-.984.859-5.414-.49-5.414-1.717 0-1.472 4.553-1.472 5.414 0ZM20.53 81.328c1.108-.368 2.707-1.472 3.445-2.453 3.076-3.68 12.304 5.152 9.72 9.322-.492.859-6.274 1.35-14.887 1.35H4.783v-3.68c0-2.822.861-4.294 3.937-6.134 3.814-2.208 3.937-2.208 6.767 0 1.6 1.227 3.937 1.963 5.044 1.595Zm49.461-1.472c0 .736-.492.859-1.23.49-.615-.367-1.23-1.349-1.23-1.962 0-.736.615-.859 1.23-.49.738.367 1.23 1.349 1.23 1.962Zm7.874-.736c-.492.981-1.353 1.84-1.968 1.84-.738 0-.615-.736.246-1.84.861-.981 1.722-1.84 1.969-1.84.246 0 .123.859-.246 1.84Zm-11.688 3.803 1.6 4.416 2.706-2.576 2.83-2.576 2.215 2.453c2.215 2.453 2.215 2.453 4.183-1.84 1.846-4.17 2.092-4.293 4.798-2.453 1.723 1.349 2.707 3.189 2.707 5.642v3.558H73.068c-11.196 0-14.395-.368-14.887-1.718-1.108-2.698 2.953-9.2 5.66-9.322.491 0 1.476 1.962 2.337 4.416Z"/><path fill="#fff" d="M42.309 25.883c-.861 1.349 2.215 2.698 4.921 2.085 1.108-.123 2.092-.859 2.215-1.595.37-1.595-6.275-2.085-7.136-.49ZM69.377 63.541c-1.6 1.595-.37 2.699 3.076 2.699 2.091 0 3.69-.49 3.69-1.104 0-1.227-5.782-2.576-6.766-1.595ZM18.686 63.541c-1.6.246-2.83.982-2.83 1.595 0 1.472 5.783 1.472 6.767 0 .861-1.595-.615-2.208-3.937-1.595ZM19.424 5.643c-.123.613-.123 1.472 0 1.962 0 .614-1.107.982-2.584.982-5.782 0-6.52 1.717-6.52 13.002 0 7.483.492 10.795 1.599 11.163 1.107.49 1.476-2.085 1.476-9.936 0-10.55 0-10.55 3.2-10.55 1.722 0 2.829.491 2.337 1.105-1.476 2.576 1.722 2.33 4.183-.368l2.584-2.699-3.076-2.944c-1.723-1.595-3.199-2.33-3.199-1.717ZM67.162 9.323c-1.6 1.595.615 2.944 4.799 2.944h4.183v7.483c0 4.17-.492 7.114-1.107 6.623-2.584-1.472-2.707 2.208-.247 4.662l2.584 2.576 2.584-2.576c2.46-2.454 2.338-6.134-.246-4.662-.615.491-1.107-2.576-1.107-6.992 0-4.538-.615-8.463-1.477-9.322-1.6-1.595-8.612-2.085-9.966-.736ZM42.555 52.256c-3.076 4.17-2.215 6.992 2.584 8.464 5.29 1.472 5.044 3.557-.37 2.699-4.306-.736-6.028.98-2.46 2.33.984.49 1.846 1.472 1.846 2.454 0 .98.86 1.717 1.845 1.717.984 0 1.846-.736 1.846-1.717 0-.982.86-1.963 1.845-2.454 2.215-.858 2.46-4.538.37-6.624-.862-.858-2.708-1.472-4.307-1.472-1.6 0-2.83-.613-2.83-1.35 0-.98 1.477-1.226 4.306-.735 4.922.736 5.168.123 1.969-3.803-2.953-3.434-3.937-3.312-6.644.49Z"/></svg>