<svg width="25" height="35" fill="none" xmlns="http://www.w3.org/2000/svg"><path d="M6.413 10.311V7.684C6.413 3.932 9.127.87 12.499.87c3.372 0 6.087 3.061 6.087 6.813v2.627h4.207c.192 0 .378.08.519.221a.85.85 0 0 1 .24.544L25 34.066a.867.867 0 0 1-.188.594.746.746 0 0 1-.521.28H.76a.733.733 0 0 1-.538-.24.854.854 0 0 1-.222-.58v-.055l1.446-22.99a.85.85 0 0 1 .24-.544.733.733 0 0 1 .52-.222l4.207.002Zm2.283 0h7.609V7.684c0-2.415-1.705-4.351-3.806-4.351-2.1 0-3.803 1.936-3.803 4.35v2.628Zm-6.308 22.17H22.61l-1.237-19.705H3.628L2.388 32.48Z" fill="#fff"/></svg>