<svg width="25" height="35" viewBox="0 0 25 35" fill="none" xmlns="http://www.w3.org/2000/svg">
<path d="M6.41274 10.3112V7.68386C6.41274 3.93198 9.12732 0.871094 12.4992 0.871094C15.8712 0.871094 18.5857 3.93198 18.5857 7.68386V10.3112H22.7927C22.9855 10.3114 23.171 10.3903 23.3119 10.5322C23.4529 10.6741 23.5388 10.8683 23.5523 11.0758L24.9985 34.0653C25.0112 34.2825 24.9439 34.4963 24.8112 34.6602C24.6785 34.824 24.4912 34.9247 24.29 34.9402H0.759595C0.558138 34.9402 0.364932 34.8538 0.22248 34.7001C0.0800284 34.5464 0 34.3379 0 34.1205V34.0653L1.44615 11.0758C1.45911 10.8678 1.54475 10.673 1.68576 10.5305C1.82676 10.3881 2.01262 10.3088 2.20575 10.3086L6.41274 10.3112ZM8.69639 10.3112H16.3045V7.68386C16.3045 5.26931 14.6003 3.33294 12.4992 3.33294C10.3982 3.33294 8.69639 5.26931 8.69639 7.68386V10.3112ZM2.38834 32.481H22.6101L21.3734 12.7757H3.62756L2.38834 32.481Z" fill="white"/>
</svg>
