<svg width="23" height="23" viewBox="0 0 23 23" fill="none" xmlns="http://www.w3.org/2000/svg">
<path fill-rule="evenodd" clip-rule="evenodd" d="M2.68198 0.43934C2.09619 -0.146447 1.14645 -0.146447 0.56066 0.43934C-0.0251263 1.02513 -0.0251263 1.97487 0.56066 2.56066L9.37868 11.3787L0.43934 20.318C-0.146447 20.9038 -0.146447 21.8536 0.43934 22.4393C1.02513 23.0251 1.97487 23.0251 2.56066 22.4393L11.5 13.5L20.4393 22.4393C21.0251 23.0251 21.9749 23.0251 22.5607 22.4393C23.1464 21.8536 23.1464 20.9038 22.5607 20.318L13.6213 11.3787L22.4393 2.56066C23.0251 1.97488 23.0251 1.02513 22.4393 0.439341C21.8536 -0.146446 20.9038 -0.146445 20.318 0.439341L11.5 9.25736L2.68198 0.43934Z" fill="#BABABA"/>
</svg>
