<svg width="117" height="86" viewBox="0 0 117 86" fill="none" xmlns="http://www.w3.org/2000/svg">
<path d="M106.688 46.49V42.9374C108.369 42.2043 109.8 40.996 110.806 39.4625C111.811 37.9289 112.348 36.1348 112.35 34.3004V17.3129C112.35 16.8124 112.151 16.3321 111.797 15.9782C111.444 15.6243 110.963 15.4254 110.463 15.4254H99.1377C96.6359 15.4288 94.2369 16.4239 92.4674 18.1926C90.6987 19.9621 89.7037 22.3611 89.7003 24.8629V34.3004C89.7028 36.1348 90.2395 37.9287 91.2448 39.4625C92.2509 40.9961 93.6817 42.2044 95.3628 42.9374V46.49C92.8829 46.6484 90.5481 47.7169 88.8062 49.4897C87.0653 51.2635 86.039 53.6161 85.9253 56.0994V83.3765C85.9253 83.877 86.1242 84.3573 86.4781 84.7112C86.832 85.0651 87.3123 85.264 87.8128 85.264H114.238C114.738 85.264 115.219 85.0651 115.573 84.7112C115.926 84.3573 116.125 83.877 116.125 83.3765V56.0994C116.012 53.6161 114.985 51.2635 113.244 49.4897C111.503 47.7168 109.168 46.6483 106.688 46.49H106.688ZM99.1377 19.2H108.575V24.8625H93.4752C93.4752 23.3609 94.0718 21.9199 95.1335 20.8584C96.1952 19.7969 97.6362 19.2001 99.1376 19.2001L99.1377 19.2ZM93.4752 34.3V28.6375H108.575V34.3C108.575 35.8015 107.979 37.2425 106.917 38.3041C105.855 39.3656 104.414 39.9624 102.913 39.9624H99.1378C97.6362 39.9624 96.1953 39.3658 95.1337 38.3041C94.0722 37.2423 93.4754 35.8014 93.4754 34.3H93.4752ZM102.913 43.7375V48.5067L101.025 51.0109L99.1377 48.5067V43.7375H102.913ZM112.35 81.4875H89.7002V56.0979C89.8148 54.5559 90.4906 53.1092 91.5987 52.0306C92.7076 50.9529 94.173 50.3184 95.7175 50.2468L99.1377 54.7802V73.9367L101.025 75.8242L102.913 73.9367V54.7802L106.333 50.2392C107.879 50.3108 109.345 50.9462 110.453 52.0265C111.562 53.1059 112.237 54.5544 112.35 56.0981L112.35 81.4875Z" fill="white"/>
<path d="M33.0751 83.3751V56.098C32.9614 53.6147 31.9351 51.2621 30.1943 49.4883C28.4526 47.7154 26.1177 46.6469 23.6376 46.4886V42.936C25.3187 42.2029 26.7495 40.9945 27.7556 39.461C28.7609 37.9274 29.2976 36.1334 29.3002 34.299V21.0865C29.3002 19.5849 28.7036 18.1439 27.6419 17.0824C26.5802 16.0208 25.1392 15.4241 23.6378 15.4241H2.87529C1.83296 15.4241 0.987793 16.2692 0.987793 17.3116V21.0866C0.993691 22.7558 1.5532 24.3754 2.57784 25.6932C3.60249 27.0102 5.03418 27.9515 6.65031 28.3684V34.2989C6.65284 36.1333 7.1896 37.9272 8.19487 39.4609C9.20099 40.9945 10.6318 42.2028 12.3129 42.9358V46.4884C9.83301 46.6469 7.49812 47.7153 5.75622 49.4882C4.01534 51.2619 2.98904 53.6146 2.87536 56.0979V83.375C2.87536 83.8755 3.07422 84.3558 3.42813 84.7097C3.78203 85.0636 4.26234 85.2625 4.76286 85.2625H31.1879C31.6884 85.2625 32.1687 85.0636 32.5226 84.7097C32.8765 84.3558 33.0754 83.8755 33.0754 83.375L33.0751 83.3751ZM4.76264 21.0875V19.2H23.6376C24.1382 19.2 24.6185 19.3989 24.9724 19.7528C25.3263 20.1067 25.5251 20.587 25.5251 21.0875V24.8625H8.53764C7.5366 24.8625 6.57598 24.4648 5.86818 23.757C5.16038 23.0492 4.76264 22.0886 4.76264 21.0875ZM10.4251 34.3V28.6375H25.5251V34.3C25.5251 35.8016 24.9286 37.2426 23.8668 38.3041C22.8051 39.3657 21.3641 39.9624 19.8628 39.9624H16.0878C14.5862 39.9624 13.1452 39.3659 12.0837 38.3041C11.0221 37.2424 10.4254 35.8014 10.4254 34.3H10.4251ZM19.8626 43.7375V48.5068L17.9751 51.011L16.0876 48.5068V43.7375H19.8626ZM29.3001 81.4876H6.65014V56.098C6.76474 54.556 7.44054 53.1093 8.5486 52.0307C9.6575 50.953 11.1229 50.3185 12.6674 50.2468L16.0876 54.7803V73.9368L17.9751 75.8243L19.8626 73.9368V54.7803L23.2827 50.2393C24.829 50.3109 26.2952 50.9462 27.4033 52.0265C28.5122 53.1059 29.1872 54.5545 29.3001 56.0981L29.3001 81.4876Z" fill="white"/>
<path d="M70.8254 43.7375H67.0504V39.3963C69.7729 38.5814 72.1609 36.9112 73.8605 34.6337C75.5601 32.356 76.481 29.5923 76.4879 26.75V10.9287C76.4921 9.65965 76.1399 8.41515 75.4734 7.33571C74.806 6.2563 73.8496 5.38501 72.7129 4.82135C71.7641 4.34779 70.7192 4.1009 69.6592 4.10004H69.093C68.284 4.10257 67.508 3.78152 66.9375 3.20938L66.0578 2.33388V2.33304C64.7795 1.05812 63.0462 0.343569 61.2405 0.347797H61.2312L49.5893 0.36465C46.4826 0.369705 43.578 1.9033 41.821 4.46495C40.064 7.0266 39.6807 10.2892 40.7955 13.1887L42.5128 17.6639V26.75C42.5195 29.5922 43.4405 32.3559 45.1402 34.6337C46.8398 36.9114 49.2278 38.5815 51.9503 39.3962V43.7375H48.1753C45.6734 43.7408 43.2745 44.736 41.505 46.5046C39.7363 48.2742 38.7412 50.6731 38.7378 53.175V83.375C38.7378 83.8755 38.9367 84.3558 39.2906 84.7097C39.6445 85.0636 40.1248 85.2625 40.6253 85.2625H78.3753C78.8758 85.2625 79.3561 85.0636 79.71 84.7097C80.0639 84.3558 80.2628 83.8755 80.2628 83.375V53.175C80.2594 50.6731 79.2643 48.2742 77.4956 46.5046C75.7261 44.736 73.3272 43.7409 70.8253 43.7375L70.8254 43.7375ZM63.2096 67.5588L59.5004 71.268L55.7912 67.5588L57.4621 47.5116H61.5387L63.2096 67.5588ZM44.9328 6.59365C45.9793 5.0491 47.7269 4.1289 49.5926 4.1399L61.2328 4.12305C62.04 4.12389 62.8144 4.44242 63.3882 5.01035L64.2679 5.88585C65.5471 7.16413 67.283 7.88036 69.0902 7.87532H69.6565C70.1309 7.87616 70.5986 7.98654 71.0232 8.19805C72.0614 8.71205 72.7161 9.77125 72.7127 10.929V15.4253H69.7188L66.4965 12.203H66.4973C65.76 11.4665 64.5652 11.4665 63.8278 12.203L60.6064 15.4253H45.6951L44.3157 11.8391H44.3149C43.6323 10.0999 43.8641 8.13398 44.9325 6.60133L44.9328 6.59365ZM46.2877 26.7502V19.2002H61.3877C61.8882 19.2002 62.3685 19.0014 62.7224 18.6474L65.1626 16.2064L67.6028 18.6466V18.6474C67.9567 19.0013 68.437 19.2002 68.9375 19.2002H72.7125V26.7502C72.7091 29.2521 71.714 31.651 69.9453 33.4205C68.1758 35.1892 65.7768 36.1842 63.275 36.1877H55.725C53.2231 36.1843 50.8242 35.1892 49.0547 33.4205C47.286 31.651 46.2909 29.2521 46.2875 26.7502L46.2877 26.7502ZM55.7252 39.9627H63.2752V43.7377H55.7252V39.9627ZM76.4877 81.4877H42.5127V53.1752C42.5127 51.6737 43.1093 50.2327 44.171 49.1711C45.2327 48.1096 46.6737 47.5128 48.1751 47.5128H53.6732L51.95 68.1185C51.9045 68.6721 52.1042 69.2173 52.4978 69.61L58.1603 75.2725C58.8967 76.0089 60.0916 76.0089 60.8289 75.2725L66.4914 69.61C66.884 69.2173 67.0846 68.6721 67.0391 68.1185L65.3268 47.5128H70.825C72.3265 47.5128 73.7675 48.1094 74.8291 49.1711C75.8906 50.2329 76.4874 51.6739 76.4874 53.1752L76.4877 81.4877Z" fill="white"/>
</svg>
