<svg width="119" height="74" viewBox="0 0 119 74" fill="none" xmlns="http://www.w3.org/2000/svg">
<path d="M0.418388 1.27984C0.0464875 2.1476 -0.0774792 13.3046 0.0464875 25.8252L0.418388 48.7591L8.84812 49.131C14.1787 49.3789 18.0217 48.883 19.1374 48.0153C20.625 46.8996 22.1126 47.7673 27.4431 52.602C35.501 60.164 47.4018 69.4615 52.8563 72.1888C57.9389 74.7921 68.972 73.8004 73.4348 70.3293C75.0463 68.9657 77.2777 67.9739 78.2695 67.9739C79.3852 67.9739 81.7405 66.6103 83.724 64.9987C85.5835 63.3872 88.4347 61.7756 90.0463 61.2797C91.9058 60.6599 93.1455 59.0483 93.6413 56.6929C94.6331 51.7343 97.3603 49.6268 99.3438 52.3541C100.583 54.0896 102.567 54.3376 109.509 54.0896L118.187 53.7177V29.5442V5.37074L108.517 5.61867C97.9802 5.86661 85.5835 8.84181 84.5918 11.4451C84.0959 12.8087 81.6166 12.1889 73.8067 8.96577C62.0298 4.13107 60.5422 4.0071 53.2282 7.23024C49.5092 8.96577 45.1704 9.70957 38.972 9.70957C31.0382 9.70957 30.0464 9.46164 28.9307 6.98231C27.4431 3.75917 21.2448 1.65174 9.22002 0.412071C2.77375 -0.331729 0.914254 -0.0837959 0.418388 1.27984ZM14.6746 6.11454C19.1374 6.73437 23.1043 7.72611 23.6002 8.22197C24.5919 9.21371 22.4845 19.255 18.3936 34.131L15.5423 44.4202H10.0878H4.75722V24.5856C4.75722 13.6765 5.12912 4.7509 5.74896 4.7509C6.24482 4.7509 10.2118 5.37074 14.6746 6.11454ZM74.7984 14.7922L87.6909 19.8748L91.286 29.9161C96.7405 45.164 96.7405 45.164 94.6331 46.8996C92.8975 48.2632 91.7818 47.7673 86.8232 42.9326C83.6 39.9574 76.6579 33.8831 71.4513 29.5442C62.0298 21.9823 61.7819 21.8583 57.815 23.3459C55.5836 24.2137 52.6084 26.0732 51.1208 27.3128C47.7737 30.288 41.9472 30.288 41.9472 27.3128C41.9472 22.3542 54.9637 9.70957 60.1703 9.70957C61.0381 9.70957 67.6083 11.941 74.7984 14.7922ZM113.848 29.5442V49.3789H108.517H103.187L99.8397 39.0897C97.9802 33.5112 95.005 25.4533 93.3934 21.2385L90.4182 13.4286L95.005 12.1889C100.46 10.7013 104.426 10.0815 109.881 9.83354L113.848 9.70957V29.5442ZM40.0877 19.255C36.7406 24.2137 35.9968 30.536 38.4762 33.0153C41.2034 35.7426 48.8894 34.7508 55.0877 30.9079L60.7902 27.1889L70.3356 35.1227C83.9719 46.4037 89.0546 51.6103 89.0546 54.3376C89.0546 58.8004 84.9637 56.9409 77.0298 49.131C71.0794 43.1806 68.848 41.8169 67.7323 42.9326C66.6166 44.0483 67.7323 45.9078 72.3191 50.8665C75.6662 54.4615 79.1372 57.9326 80.005 58.4285C82.3604 59.9161 81.9885 61.5277 79.0133 62.3954C76.9058 63.1392 74.9224 61.7756 69.0959 56.0731C63.5174 50.6186 61.41 49.2549 60.4183 50.2467C59.3026 51.3624 60.2943 53.3458 64.7571 58.5524C70.2116 64.9987 71.0794 67.9739 67.6083 67.9739C66.8645 67.9739 63.0216 64.7508 59.0546 60.9078C53.4761 55.3293 51.6166 54.0896 50.377 55.3293C49.2613 56.445 49.6332 57.5607 51.9885 60.164C53.6001 62.1475 56.0794 64.9987 57.4431 66.6103L59.9224 69.5855L56.8232 68.5938C53.2282 67.4781 37.6084 55.8252 28.3109 47.2715L21.7407 41.1971L25.2117 27.9327L28.6828 14.6682H35.9968H43.3109L40.0877 19.255Z" fill="white"/>
</svg>
