<svg xmlns="http://www.w3.org/2000/svg" width="119" height="74" fill="none"><path fill="#fff" d="M.418 1.28c-.372.868-.495 12.025-.372 24.545L.418 48.76l8.43.372c5.33.248 9.174-.248 10.29-1.116 1.487-1.115 2.975-.248 8.305 4.587 8.058 7.562 19.959 16.86 25.413 19.587 5.083 2.603 16.116 1.611 20.579-1.86 1.611-1.363 3.843-2.355 4.834-2.355 1.116 0 3.471-1.364 5.455-2.975 1.86-1.612 4.71-3.223 6.322-3.72 1.86-.62 3.1-2.23 3.595-4.586.992-4.959 3.72-7.066 5.703-4.339 1.239 1.736 3.223 1.984 10.165 1.736l8.678-.372V5.37l-9.67.248c-10.537.248-22.933 3.223-23.925 5.826-.496 1.364-2.975.744-10.785-2.48C62.03 4.132 60.542 4.008 53.228 7.23 49.51 8.966 45.17 9.71 38.972 9.71c-7.934 0-8.926-.248-10.041-2.728C27.443 3.76 21.245 1.652 9.22.412 2.774-.332.914-.084.418 1.28Zm14.257 4.835c4.462.62 8.43 1.611 8.925 2.107.992.992-1.116 11.033-5.206 25.909l-2.852 10.29H4.758V24.585c0-10.91.371-19.835.991-19.835.496 0 4.463.62 8.926 1.364Zm60.123 8.677 12.893 5.083 3.595 10.041C96.74 45.164 96.74 45.164 94.633 46.9c-1.736 1.363-2.851.867-7.81-3.967-3.223-2.976-10.165-9.05-15.372-13.389-9.421-7.562-9.67-7.686-13.636-6.198-2.231.868-5.207 2.727-6.694 3.967-3.347 2.975-9.174 2.975-9.174 0 0-4.959 13.017-17.603 18.223-17.603.868 0 7.438 2.231 14.628 5.082Zm39.05 14.752V49.38H103.187l-3.347-10.29c-1.86-5.578-4.835-13.636-6.447-17.85l-2.975-7.81 4.587-1.24c5.455-1.488 9.421-2.107 14.876-2.355l3.967-.124v19.834Zm-73.76-10.289c-3.347 4.959-4.091 11.281-1.612 13.76 2.727 2.728 10.413 1.736 16.612-2.107l5.702-3.72 9.546 7.935c13.636 11.28 18.719 16.487 18.719 19.215 0 4.462-4.091 2.603-12.025-5.207-5.95-5.95-8.182-7.314-9.298-6.198-1.115 1.115 0 2.975 4.587 7.934 3.347 3.595 6.818 7.066 7.686 7.562 2.355 1.487 1.984 3.099-.992 3.966-2.107.744-4.09-.62-9.917-6.322-5.579-5.454-7.686-6.818-8.678-5.826-1.115 1.115-.124 3.099 4.34 8.305 5.454 6.447 6.321 9.422 2.85 9.422-.743 0-4.586-3.223-8.553-7.066-5.579-5.579-7.438-6.818-8.678-5.579-1.116 1.116-.744 2.232 1.611 4.835 1.612 1.983 4.091 4.835 5.455 6.446l2.48 2.975-3.1-.991c-3.595-1.116-19.215-12.769-28.512-21.322l-6.57-6.075 3.47-13.264 3.472-13.265H43.31l-3.223 4.587Z"/></svg>