<svg width="156" height="212" viewBox="0 0 156 212" fill="none" xmlns="http://www.w3.org/2000/svg">
<path d="M76.5067 0.12954C-54.1249 16.9837 9.44748 144.307 69.547 205.138C73.3943 209.032 79.7605 208.711 83.4724 204.687C212.949 64.3405 142.061 5.39117 78.5172 0.0781176C77.8594 0.0231161 77.1614 0.0450727 76.5067 0.12954Z" fill="#FF394D"/>
<path d="M45.8535 133C44.9148 133 44.1042 132.659 43.4215 131.976C42.7388 131.293 42.3975 130.483 42.3975 129.544V46.856C42.3975 45.9173 42.7388 45.1067 43.4215 44.424C44.1042 43.7413 44.9148 43.4 45.8535 43.4H87.0695C94.3228 43.4 100.211 44.68 104.734 47.24C109.256 49.8 112.499 53.0853 114.462 57.096C116.51 61.0213 117.534 65.3307 117.534 70.024C117.534 74.2907 116.766 77.7467 115.23 80.392C113.779 82.952 112.158 84.9147 110.366 86.28C113.608 88.4987 115.912 91.144 117.278 94.216C118.643 97.2027 119.326 100.872 119.326 105.224C119.326 113.16 116.936 119.773 112.158 125.064C107.379 130.355 99.9122 133 89.7575 133H45.8535ZM66.0775 63.24V77.832H85.9175C88.4775 77.832 90.3975 77.192 91.6775 75.912C93.0428 74.632 93.7255 72.84 93.7255 70.536C93.7255 68.232 93.0428 66.44 91.6775 65.16C90.3975 63.88 88.4775 63.24 85.9175 63.24H66.0775ZM87.1975 113.16C89.7575 113.16 91.8055 112.435 93.3415 110.984C94.8775 109.533 95.6455 107.656 95.6455 105.352C95.6455 103.048 94.8775 101.171 93.3415 99.72C91.8055 98.2693 89.7575 97.544 87.1975 97.544H66.0775V113.16H87.1975Z" fill="white"/>
</svg>
