<svg xmlns="http://www.w3.org/2000/svg" width="156" height="212" fill="none"><path fill="#FF394D" d="M76.507.13c-130.632 16.854-67.06 144.177-6.96 205.008 3.847 3.894 10.213 3.573 13.925-.451C212.95 64.341 142.061 5.391 78.517.078a9.69 9.69 0 0 0-2.01.052Z"/><path fill="#fff" d="M45.853 133c-.938 0-1.749-.341-2.431-1.024-.683-.683-1.024-1.493-1.024-2.432V46.856c0-.939.34-1.75 1.023-2.432.683-.683 1.494-1.024 2.432-1.024H87.07c7.253 0 13.141 1.28 17.664 3.84 4.522 2.56 7.765 5.845 9.728 9.856 2.048 3.925 3.072 8.235 3.072 12.928 0 4.267-.768 7.723-2.304 10.368-1.451 2.56-3.072 4.523-4.864 5.888 3.242 2.219 5.546 4.864 6.912 7.936 1.365 2.987 2.048 6.656 2.048 11.008 0 7.936-2.39 14.549-7.168 19.84-4.779 5.291-12.246 7.936-22.4 7.936H45.853Zm20.224-69.76v14.592h19.84c2.56 0 4.48-.64 5.76-1.92 1.366-1.28 2.048-3.072 2.048-5.376 0-2.304-.682-4.096-2.047-5.376-1.28-1.28-3.2-1.92-5.76-1.92h-19.84Zm21.12 49.92c2.56 0 4.608-.725 6.144-2.176 1.537-1.451 2.305-3.328 2.305-5.632s-.769-4.181-2.305-5.632c-1.535-1.45-3.584-2.176-6.143-2.176h-21.12v15.616h21.12Z"/></svg>