<svg width="40" height="30" viewBox="0 0 40 30" fill="none" xmlns="http://www.w3.org/2000/svg">
<mask id="path-1-outside-1_183_11" maskUnits="userSpaceOnUse" x="0" y="0" width="40" height="30" fill="black">
<rect fill="white" width="40" height="30"/>
<path fill-rule="evenodd" clip-rule="evenodd" d="M0.999976 4.59998C0.999976 2.61175 2.61175 0.999976 4.59998 0.999976H35.6C37.5882 0.999976 39.2 2.61175 39.2 4.59998V25.6C39.2 27.5882 37.5882 29.2 35.6 29.2H4.59998C2.61175 29.2 0.999976 27.5882 0.999976 25.6V4.59998ZM6.81536 4.19998L20.3109 13.9468L34.9311 4.19998H6.81536ZM21.7031 16.8393C21.6902 16.8587 21.677 16.878 21.6632 16.8971C21.1458 17.6134 20.1457 17.7747 19.4293 17.2574L4.19998 6.25839V25.6C4.19998 25.8209 4.37906 26 4.59998 26H35.6C35.8209 26 36 25.8209 36 25.6V7.33331L21.9313 16.7125C21.8575 16.7616 21.7812 16.8038 21.7031 16.8393Z"/>
</mask>
<path fill-rule="evenodd" clip-rule="evenodd" d="M0.999976 4.59998C0.999976 2.61175 2.61175 0.999976 4.59998 0.999976H35.6C37.5882 0.999976 39.2 2.61175 39.2 4.59998V25.6C39.2 27.5882 37.5882 29.2 35.6 29.2H4.59998C2.61175 29.2 0.999976 27.5882 0.999976 25.6V4.59998ZM6.81536 4.19998L20.3109 13.9468L34.9311 4.19998H6.81536ZM21.7031 16.8393C21.6902 16.8587 21.677 16.878 21.6632 16.8971C21.1458 17.6134 20.1457 17.7747 19.4293 17.2574L4.19998 6.25839V25.6C4.19998 25.8209 4.37906 26 4.59998 26H35.6C35.8209 26 36 25.8209 36 25.6V7.33331L21.9313 16.7125C21.8575 16.7616 21.7812 16.8038 21.7031 16.8393Z" fill="black"/>
<path d="M6.81536 4.19998V3.99998H6.19684L6.69826 4.36211L6.81536 4.19998ZM20.3109 13.9468L20.1938 14.1089L20.3064 14.1902L20.4219 14.1132L20.3109 13.9468ZM34.9311 4.19998L35.042 4.36639L35.5917 3.99998H34.9311V4.19998ZM21.7031 16.8393L21.6204 16.6571L21.5678 16.681L21.536 16.7293L21.7031 16.8393ZM21.6632 16.8971L21.8253 17.0142L21.8253 17.0142L21.6632 16.8971ZM19.4293 17.2574L19.5464 17.0952L19.5464 17.0952L19.4293 17.2574ZM4.19998 6.25839L4.31707 6.09626L3.99998 5.86724V6.25839H4.19998ZM36 7.33331H36.2V6.9596L35.889 7.1669L36 7.33331ZM21.9313 16.7125L21.8203 16.546L21.8203 16.546L21.9313 16.7125ZM4.59998 0.799976C2.50129 0.799976 0.799976 2.50129 0.799976 4.59998H1.19998C1.19998 2.72221 2.72221 1.19998 4.59998 1.19998V0.799976ZM35.6 0.799976H4.59998V1.19998H35.6V0.799976ZM39.4 4.59998C39.4 2.50129 37.6987 0.799976 35.6 0.799976V1.19998C37.4777 1.19998 39 2.72221 39 4.59998H39.4ZM39.4 25.6V4.59998H39V25.6H39.4ZM35.6 29.4C37.6987 29.4 39.4 27.6987 39.4 25.6H39C39 27.4777 37.4777 29 35.6 29V29.4ZM4.59998 29.4H35.6V29H4.59998V29.4ZM0.799976 25.6C0.799976 27.6987 2.50129 29.4 4.59998 29.4V29C2.72221 29 1.19998 27.4777 1.19998 25.6H0.799976ZM0.799976 4.59998V25.6H1.19998V4.59998H0.799976ZM6.69826 4.36211L20.1938 14.1089L20.428 13.7846L6.93246 4.03784L6.69826 4.36211ZM34.8202 4.03357L20.2 13.7804L20.4219 14.1132L35.042 4.36639L34.8202 4.03357ZM6.81536 4.39998H34.9311V3.99998H6.81536V4.39998ZM21.536 16.7293C21.5248 16.7463 21.5131 16.7632 21.5011 16.78L21.8253 17.0142C21.8408 16.9928 21.8557 16.9711 21.8701 16.9493L21.536 16.7293ZM21.5011 16.78C21.0484 17.4068 20.1732 17.5479 19.5464 17.0952L19.3122 17.4195C20.1181 18.0015 21.2433 17.8201 21.8253 17.0142L21.5011 16.78ZM19.5464 17.0952L4.31707 6.09626L4.08288 6.42053L19.3122 17.4195L19.5464 17.0952ZM4.39998 25.6V6.25839H3.99998V25.6H4.39998ZM4.59998 25.8C4.48952 25.8 4.39998 25.7104 4.39998 25.6H3.99998C3.99998 25.9313 4.26861 26.2 4.59998 26.2V25.8ZM35.6 25.8H4.59998V26.2H35.6V25.8ZM35.8 25.6C35.8 25.7104 35.7104 25.8 35.6 25.8V26.2C35.9313 26.2 36.2 25.9313 36.2 25.6H35.8ZM35.8 7.33331V25.6H36.2V7.33331H35.8ZM22.0422 16.8789L36.1109 7.49972L35.889 7.1669L21.8203 16.546L22.0422 16.8789ZM21.7857 17.0214C21.8736 16.9815 21.9594 16.934 22.0422 16.8789L21.8203 16.546C21.7556 16.5892 21.6888 16.6261 21.6204 16.6571L21.7857 17.0214Z" fill="black" mask="url(#path-1-outside-1_183_11)"/>
</svg>
