<svg width="88" height="92" viewBox="0 0 88 92" fill="none" xmlns="http://www.w3.org/2000/svg">
<path fill-rule="evenodd" clip-rule="evenodd" d="M44.0671 14.9587C30.3146 14.9587 19.1499 26.5114 19.1499 40.7426C19.1499 54.9739 30.3143 66.5265 44.0671 66.5265C57.82 66.5265 68.9843 54.9732 68.9843 40.7426C68.9843 26.5121 57.8193 14.9587 44.0671 14.9587ZM44.0671 18.9265C55.7038 18.9265 65.1499 28.7015 65.1499 40.7426C65.1499 52.7841 55.7035 62.5587 44.0671 62.5587C32.4311 62.5587 22.9843 52.7837 22.9843 40.7426C22.9843 28.7019 32.4308 18.9265 44.0671 18.9265V18.9265Z" fill="white"/>
<path fill-rule="evenodd" clip-rule="evenodd" d="M45.7991 24.0246C45.4808 23.3326 44.8083 22.8923 44.0684 22.8923C43.3285 22.8923 42.6559 23.3326 42.3376 24.0246L38.38 32.6402L29.2372 33.872C28.5049 33.9716 27.8921 34.4989 27.6617 35.2267C27.4339 35.9545 27.6309 36.7541 28.168 37.2793L34.8646 43.8362L33.1723 53.2154C33.0363 53.9671 33.3315 54.7328 33.9296 55.183C34.527 55.6332 35.3228 55.687 35.9723 55.3198L44.0685 50.7563L52.1646 55.3198C52.8141 55.687 53.6098 55.6332 54.2074 55.183C54.8055 54.7328 55.1007 53.9671 54.9646 53.2154L53.2723 43.8362L59.9689 37.2793C60.5061 36.754 60.7031 35.9545 60.4753 35.2267C60.2449 34.4989 59.632 33.9716 58.8998 33.872L49.757 32.6402L45.7993 24.0246H45.7991ZM44.0684 29.497L46.7418 35.3195C47.0216 35.9265 47.5818 36.3475 48.2255 36.4345L54.4048 37.2672L49.8799 41.6984C49.4063 42.162 49.1932 42.8406 49.3126 43.5027L50.4568 49.8398L44.9846 46.7558C44.4134 46.4344 43.7229 46.4344 43.1518 46.7558L37.6796 49.8398L38.8238 43.5027C38.9432 42.8406 38.7301 42.1619 38.2565 41.6984L33.7316 37.2672L39.9109 36.4345C40.5546 36.3475 41.1148 35.9265 41.3946 35.3195L44.0684 29.497Z" fill="white"/>
<path fill-rule="evenodd" clip-rule="evenodd" d="M10.5531 61.7374L1.83047 70.7652C0.613082 72.0229 0.177922 73.8771 0.697804 75.573C1.2189 77.2683 2.61025 78.5221 4.30503 78.8215L11.7416 80.1423L13.018 87.8376C13.3074 89.5913 14.519 91.031 16.1573 91.5702C17.7964 92.1081 19.5881 91.6579 20.8035 90.3982L34.9751 75.7336C35.7016 75.9295 36.3728 76.3446 36.89 76.9535C37.3425 77.4848 37.825 78.0539 38.3121 78.625C39.767 80.3369 41.8635 81.3184 44.0679 81.3184C46.2723 81.3184 48.3689 80.337 49.8236 78.625C50.3107 78.0539 50.7933 77.4848 51.2457 76.9535C51.763 76.3446 52.4342 75.9295 53.1606 75.7336L67.3322 90.3982C68.5477 91.6579 70.3395 92.1082 71.9784 91.5683C73.6168 91.031 74.8284 89.5913 75.1177 87.8376L76.3942 80.1424L83.8307 78.8216C85.5255 78.5221 86.9168 77.2683 87.4379 75.573C87.9578 73.877 87.5227 72.0229 86.3053 70.7653L77.5827 61.7374C77.7418 61.511 77.8894 61.2752 78.0274 61.0295C79.1273 59.056 79.3558 56.6858 78.6499 54.5257C78.4163 53.8038 78.1827 53.088 77.962 52.416C77.4678 50.9006 77.901 49.2245 79.0625 48.1694C79.5759 47.7012 80.1259 47.2018 80.6778 46.6978C82.3322 45.1924 83.2807 43.0229 83.2807 40.7418C83.2807 38.4608 82.3323 36.2912 80.6778 34.7859C80.1259 34.2819 79.5759 33.7825 79.0625 33.3143C77.901 32.2592 77.4678 30.5831 77.962 29.0677C78.1827 28.3957 78.4163 27.6798 78.6499 26.958C79.3558 24.7979 79.1273 22.4279 78.0274 20.4542C76.9249 18.4793 75.0542 17.0907 72.8941 16.6424C72.1735 16.4917 71.4566 16.343 70.786 16.2042C69.2702 15.8887 68.0855 14.6629 67.7807 13.0944C67.6466 12.4004 67.5029 11.6587 67.3572 10.9129C66.924 8.67776 65.5821 6.74197 63.6736 5.6011C61.7664 4.46289 59.4759 4.22649 57.3883 4.95695C56.6908 5.19867 55.999 5.44039 55.3496 5.66882C53.8851 6.18015 52.2654 5.73191 51.2457 4.52996C50.7933 3.99871 50.3107 3.4296 49.8236 2.85852C48.3688 1.14662 46.2722 0.165039 44.0679 0.165039C41.8635 0.165039 39.7669 1.14652 38.3121 2.85852C37.825 3.42962 37.3424 3.99871 36.89 4.52996C35.8703 5.73191 34.2506 6.18015 32.7862 5.66882C32.1367 5.44038 31.4449 5.19867 30.7474 4.95695C28.6598 4.22648 26.3695 4.46289 24.4621 5.6011C22.5536 6.74195 21.2117 8.67776 20.7785 10.9129C20.6328 11.6587 20.4891 12.4004 20.355 13.0944C20.0501 14.6629 18.8655 15.8888 17.3497 16.2042C16.6791 16.343 15.9622 16.4917 15.2416 16.6424C13.0815 17.0907 11.2108 18.4793 10.1083 20.4542C9.00836 22.4277 8.77991 24.7979 9.48581 26.958C9.71941 27.6799 9.953 28.3957 10.1738 29.0677C10.6679 30.5831 10.2347 32.2592 9.07317 33.3143C8.55978 33.7825 8.0098 34.2819 7.45792 34.7859C5.80356 36.2913 4.85497 38.4608 4.85497 40.7418C4.85497 43.0229 5.80346 45.1925 7.45792 46.6978C8.00982 47.2018 8.55978 47.7012 9.07317 48.1694C10.2347 49.2245 10.6679 50.9006 10.1738 52.416C9.95299 53.088 9.71941 53.8038 9.48581 54.5257C8.77989 56.6858 9.00836 59.0558 10.1083 61.0295C10.2463 61.2752 10.3939 61.511 10.553 61.7374L10.5531 61.7374ZM74.6031 64.2641C74.0621 64.5237 73.491 64.7183 72.8949 64.8411C72.1742 64.9919 71.4574 65.1406 70.7868 65.2794C69.271 65.5948 68.0862 66.8207 67.7815 68.3892C67.6474 69.0832 67.5036 69.8249 67.358 70.5707C66.9248 72.8058 65.5828 74.7416 63.6743 75.8825C62.4704 76.6023 61.1131 76.9616 59.7507 76.9437L70.0429 87.5938C70.2463 87.8043 70.5454 87.8794 70.8175 87.7884C71.0915 87.6987 71.293 87.459 71.3405 87.1675L72.8454 78.0898C72.9833 77.2604 73.6097 76.6123 74.4112 76.4695L83.1837 74.9123C83.4654 74.8632 83.6971 74.6546 83.7838 74.3711C83.8717 74.0895 83.7992 73.7801 83.5957 73.5696L74.6031 64.2641ZM13.5332 64.2641L4.54053 73.5695C4.33709 73.78 4.26458 74.0895 4.3525 74.371C4.43914 74.6546 4.67081 74.8631 4.95253 74.9123L13.7251 76.4695C14.5266 76.6123 15.1529 77.2604 15.2909 78.0898L16.7958 87.1675C16.8433 87.459 17.0448 87.6987 17.3188 87.7884C17.5909 87.8793 17.89 87.8043 18.0934 87.5938L28.3856 76.9436C27.0231 76.9616 25.6658 76.6023 24.4619 75.8824C22.5534 74.7416 21.2115 72.8058 20.7783 70.5706C20.6326 69.8249 20.4889 69.0831 20.3548 68.3892C20.0499 66.8207 18.8653 65.5947 17.3495 65.2794C16.6789 65.1406 15.962 64.9918 15.2414 64.8411C14.6452 64.7182 14.074 64.5237 13.5331 64.264L13.5332 64.2641ZM41.1891 5.47807C41.9174 4.62343 42.966 4.13134 44.0678 4.13134C45.1697 4.13134 46.2183 4.62341 46.9466 5.47807C47.4318 6.05115 47.9144 6.61826 48.3668 7.15017C50.4102 9.5521 53.6451 10.4506 56.576 9.42732C57.2235 9.19887 57.9179 8.95717 58.6154 8.71478C59.6583 8.35022 60.8024 8.46709 61.7567 9.03618C62.711 9.60728 63.3823 10.5735 63.5985 11.6918C63.7442 12.4395 63.888 13.1812 64.0221 13.8759C64.6298 17.0116 67.0004 19.4647 70.0307 20.0935C70.7019 20.2323 71.4188 20.381 72.1414 20.5318C73.2221 20.7556 74.1559 21.4502 74.7077 22.4376C75.2577 23.4251 75.3707 24.6091 75.0183 25.6882C74.7841 26.41 74.5505 27.1286 74.3297 27.7986C73.3408 30.8314 74.2091 34.1789 76.5303 36.2933C77.0444 36.7615 77.5924 37.2609 78.1462 37.7629C78.9722 38.5166 79.4477 39.6016 79.4477 40.7418C79.4477 41.882 78.9722 42.9671 78.1462 43.7207C77.5924 44.2227 77.0444 44.7221 76.5303 45.1903C74.2092 47.3047 73.3409 50.6522 74.3297 53.685C74.5505 54.355 74.7841 55.0736 75.0183 55.7954C75.3706 56.8745 75.2577 58.0584 74.7077 59.046C74.1558 60.0334 73.2221 60.728 72.1414 60.9518C71.4188 61.1026 70.702 61.2513 70.0307 61.3901C67.0004 62.019 64.6298 64.472 64.0221 67.6077C63.888 68.3023 63.7442 69.044 63.5985 69.7918C63.3823 70.9101 62.711 71.8764 61.7567 72.4474C60.8025 73.0165 59.6583 73.1334 58.6154 72.7688C57.9179 72.5264 57.2235 72.2847 56.576 72.0563C53.6451 71.033 50.4102 71.9314 48.3668 74.3334C47.9144 74.8653 47.4318 75.4324 46.9466 76.0055C46.2182 76.8602 45.1697 77.3523 44.0678 77.3523C42.966 77.3523 41.9173 76.8602 41.1891 76.0055C40.7039 75.4324 40.2213 74.8653 39.7689 74.3334C37.7255 71.9315 34.4906 71.033 31.5597 72.0563C30.9122 72.2847 30.2178 72.5264 29.5203 72.7688C28.4774 73.1334 27.3333 73.0165 26.3789 72.4474C25.4247 71.8763 24.7534 70.9101 24.5371 69.7918C24.3915 69.0441 24.2477 68.3024 24.1136 67.6077C23.5059 64.472 21.1353 62.0189 18.105 61.3901C17.4338 61.2513 16.7169 61.1026 15.9943 60.9518C14.9136 60.728 13.9798 60.0334 13.428 59.046C12.878 58.0585 12.765 56.8745 13.1174 55.7954C13.3516 55.0735 13.5852 54.355 13.806 53.685C14.7949 50.6522 13.9266 47.3047 11.6053 45.1903C11.0913 44.7221 10.5433 44.2227 9.98944 43.7207C9.16353 42.967 8.68799 41.882 8.68799 40.7418C8.68799 39.6016 9.16351 38.5165 9.98944 37.7629C10.5433 37.2609 11.0913 36.7615 11.6053 36.2933C13.9265 34.1789 14.7948 30.8314 13.806 27.7986C13.5852 27.1286 13.3516 26.41 13.1174 25.6882C12.7651 24.6091 12.878 23.4252 13.428 22.4376C13.9799 21.4502 14.9136 20.7556 15.9943 20.5318C16.7169 20.381 17.4337 20.2323 18.105 20.0935C21.1353 19.4646 23.5059 17.0116 24.1136 13.8759C24.2477 13.1813 24.3915 12.4396 24.5371 11.6918C24.7534 10.5735 25.4247 9.60721 26.3789 9.03618C27.3332 8.46707 28.4774 8.3502 29.5203 8.71478C30.2178 8.95717 30.9122 9.19889 31.5597 9.42732C34.4906 10.4506 37.7255 9.55216 39.7689 7.15017C40.2213 6.61826 40.7039 6.05115 41.1891 5.47807V5.47807Z" fill="white"/>
</svg>
