<svg width="118" height="61" viewBox="0 0 118 61" fill="none" xmlns="http://www.w3.org/2000/svg">
<path fill-rule="evenodd" clip-rule="evenodd" d="M7.17745 0.657837C5.49378 0.661721 3.80533 0.723862 2.14189 0.852033C1.06702 0.924857 0.236816 1.81719 0.236816 2.90857V48.2629C0.236816 49.7592 1.13304 50.3263 2.30016 50.3263H13.3052C13.6974 50.3263 14.0897 50.2107 14.4199 49.999C14.75 49.7874 15.018 49.4786 15.1811 49.1213L19.4155 39.8697C29.5662 46.2577 38.8235 52.4877 48.7668 59.2155L48.7688 59.2165C52.4081 61.6721 56.6115 60.972 59.2669 59.1369C60.5253 58.2669 61.5546 57.1386 61.9662 55.6462C63.6965 55.7336 65.4181 55.3471 66.8891 54.7354C66.8901 54.7354 66.8911 54.7344 66.8921 54.7344C68.6194 54.0178 70.1516 53.0119 70.9333 51.2641C70.9673 51.1874 70.9984 51.1078 71.0285 51.0282C73.321 51.3418 75.6 50.8505 77.3825 49.8717C78.8535 49.0648 80.1662 47.8259 80.4829 46.0052C80.7023 46.0334 80.9218 46.0576 81.1412 46.078C83.0599 46.246 84.9854 46.1072 86.6719 45.1993C86.6748 45.1983 86.6768 45.1993 86.6797 45.1993H86.6807C88.3789 44.2885 89.4704 42.5679 89.5169 40.7581C89.5373 39.9803 89.3654 39.2045 89.0323 38.4821C89.8839 38.2957 90.7257 38.0558 91.5481 37.8073C93.3649 37.2587 95.0535 36.5945 96.2603 36.0945L102.215 49.1251C102.378 49.4824 102.646 49.7912 102.977 50.0028C103.307 50.2155 103.699 50.33 104.091 50.33H115.096C116.461 50.33 117.16 49.3231 117.16 48.2667V2.91235C117.16 1.71901 116.396 1.00146 115.255 0.854851C108.602 0.342173 101.547 0.894664 95.9806 1.92779C93.1978 2.44434 90.7966 3.07355 88.9351 3.80858C88.0039 4.17562 87.2077 4.56108 86.5134 5.05531C85.8192 5.54955 85.0754 6.17485 84.853 7.38082C84.8064 7.63424 84.8074 7.89738 84.8569 8.15082L85.1162 9.48011C81.1691 8.17705 77.931 7.21189 73.8315 5.41174C73.8286 5.41077 73.8267 5.41077 73.8238 5.40883C68.0582 2.90372 62.6545 1.01607 57.2977 1.95318H57.2939C51.7458 2.91543 47.1091 5.48365 43.7768 8.57637L32.557 7.99086C31.821 3.34954 24.697 2.54565 21.4101 1.92696C17.2348 1.15211 12.2226 0.648185 7.17167 0.660788L7.17745 0.657837ZM7.18522 4.78736C11.9566 4.77862 16.7602 5.2573 20.6635 5.98166C23.3531 6.52832 25.9223 7.10315 28.3041 8.29552C28.0604 9.61799 27.8147 10.7996 27.5584 12.1096C22.3434 23.4904 17.1748 34.8489 11.9799 46.1987H4.36244V4.85131C5.2975 4.80956 6.23936 4.78625 7.18423 4.78528L7.18522 4.78736ZM110.216 4.78736C111.16 4.78833 112.102 4.8126 113.037 4.85338V46.2008H105.422L89.8377 12.0992L89.827 12.0497C89.8251 12.0352 89.8232 12.0206 89.8212 12.006L89.0968 8.29684C89.3949 8.11527 89.8591 7.87932 90.4562 7.64337C91.9234 7.0637 94.1373 6.4646 96.7394 5.98202C100.643 5.25766 105.446 4.77995 110.218 4.78771L110.216 4.78736ZM59.9022 5.84475C63.4093 5.80397 67.4817 7.14685 72.1765 9.1868C72.1794 9.18777 72.1813 9.18971 72.1842 9.18971C77.3935 11.4764 81.231 12.4736 86.2683 14.2183L94.546 32.333C93.4031 32.8029 91.9099 33.3845 90.358 33.8525C88.1869 34.508 85.8837 34.7837 84.9205 34.574C82.1455 32.5058 77.7878 29.0907 73.526 25.8479C70.782 23.7593 68.0642 21.7348 65.7562 20.1414C63.4481 18.548 61.8325 17.4022 60.1069 16.9197C60.1049 16.9197 60.103 16.9187 60.1011 16.9187C55.0121 15.5108 50.2678 18.7121 48.2241 19.3617C44.544 20.5298 42.8855 19.9812 42.5564 19.6685C42.3913 19.5122 42.2835 19.3374 42.2777 18.8063C42.2709 18.2761 42.4447 17.4518 42.8807 16.5022C44.6226 12.7047 50.3853 7.33509 58.0058 6.01468C58.0067 6.01468 58.0077 6.01371 58.0087 6.01371C58.6204 5.9069 59.2506 5.85156 59.9011 5.84379L59.9022 5.84475ZM88.7912 8.51789C88.7689 8.55576 88.7621 8.55187 88.7912 8.51789V8.51789ZM31.7689 12.0784L40.3931 12.528C39.897 13.2786 39.4726 14.034 39.1299 14.7816C38.5075 16.1371 38.1346 17.4936 38.1511 18.8577C38.1676 20.2219 38.656 21.6561 39.7173 22.6631C41.8399 24.676 45.1615 24.6643 49.4738 23.2952C52.7109 22.2669 56.3269 20.161 58.9953 20.895C59.1885 20.9493 61.2033 22.0145 63.4114 23.538C65.6194 25.0625 68.3043 27.0608 71.0259 29.1319C76.4674 33.2731 81.9581 37.6464 84.5867 39.4215L84.5877 39.4225C85.8296 40.139 85.4315 41.1547 84.7294 41.5596C84.7265 41.5606 84.7236 41.5596 84.7207 41.5596C84.1954 41.8431 82.8778 42.083 81.502 41.9626C80.13 41.8431 78.6958 41.4023 77.8666 40.9013C72.7816 37.8095 67.6801 34.7074 62.5901 31.6119C60.1539 30.205 58.2752 33.884 60.4462 35.1377L75.6324 44.3726C76.9714 45.1455 76.2189 45.7776 75.3984 46.2505C73.9284 47.0574 71.2048 47.2943 69.2754 46.0825C65.4158 43.5997 61.292 41.0743 57.3586 38.6137C54.8388 37.1591 52.7717 40.7275 55.17 42.1121C59.1258 44.6239 63.2429 47.0795 67.1208 49.645C66.9441 49.88 66.2838 50.516 65.309 50.9199C65.308 50.9199 65.307 50.9209 65.306 50.9209C63.5894 51.6355 61.2688 51.6812 60.0376 50.8442C60.0366 50.8432 60.0347 50.8442 60.0337 50.8442C60.0114 50.8286 59.989 50.8131 59.9657 50.7995L48.1081 43.4396C45.671 42.0326 43.9282 45.7893 45.9322 46.9457C49.9521 49.445 54.0244 51.9598 58.0229 54.4543C57.7287 55.0873 57.3442 55.4466 56.9209 55.7398C55.512 56.7137 53.1893 57.2177 51.0794 55.7952C51.0785 55.7942 51.0785 55.7942 51.0775 55.7952C40.9793 48.9625 31.5452 42.6152 21.147 36.0832L31.4142 13.6002C31.4822 13.4526 31.5317 13.2972 31.5628 13.138L31.7696 12.0767L31.7689 12.0784Z" fill="white"/>
</svg>
