<svg width="90" height="90" viewBox="0 0 90 90" fill="none" xmlns="http://www.w3.org/2000/svg">
<path fill-rule="evenodd" clip-rule="evenodd" d="M85 5H5V85H85V5ZM5 0C2.23858 0 0 2.23858 0 5V85C0 87.7614 2.23858 90 5 90H85C87.7614 90 90 87.7614 90 85V5C90 2.23858 87.7614 0 85 0H5ZM60.2305 46.5385V58.1617H55.2305V46.5385H42.6156V41.5385H55.2305V27.6923H60.2305V41.5385H73.085V46.5385H60.2305ZM28.2305 28.3846V37.2308H23.2305V28.3846H13.6152V23.3846H23.2305V13.0001H28.2305V23.3846H37.6152V28.3846H28.2305ZM23.1538 71.1538V77.5385H18.1538V71.1538H12.0767V66.1538H18.1538V59.5385H23.1538V66.1538H29.0767V71.1538H23.1538Z" fill="white"/>
</svg>
