<svg xmlns="http://www.w3.org/2000/svg" width="92" height="92" fill="none"><path fill="#fff" d="M39.266 3.337c-3.697 3.171-5.282 3.568-11.751 3.304-6.867-.397-7.923-.133-10.432 3.039-1.452 1.982-3.036 5.417-3.433 7.796-.66 3.17-2.244 5.153-6.734 7.796-3.3 1.982-6.206 4.492-6.734 5.814-.528 1.189.132 5.02 1.453 8.588 2.112 6.079 2.112 6.871 0 12.421-2.773 7.4-1.453 10.967 6.074 15.196 4.357 2.51 5.677 4.096 6.734 8.588 2.112 8.193 5.017 10.307 12.94 9.382 5.81-.66 7.13-.396 11.487 3.171 6.074 4.757 8.186 4.757 14.26 0 4.357-3.567 5.678-3.832 11.488-3.17 7.922.924 10.827-1.19 12.94-9.25 1.056-4.493 2.508-6.21 7.394-9.118 3.3-2.114 6.338-4.625 6.866-5.946.528-1.189-.132-5.021-1.453-8.589-2.112-5.946-2.112-6.739 0-12.685 1.32-3.567 1.98-7.4 1.453-8.588-.528-1.322-3.565-3.832-6.866-5.946-4.886-2.907-6.338-4.625-7.395-9.118-2.112-8.06-5.017-10.174-13.072-9.381-5.941.66-7.262.264-11.487-3.04-5.942-4.756-8.318-4.756-13.732-.264Zm12.28 5.682c4.489 3.7 5.413 3.964 12.015 3.171l7.13-.793 1.717 6.607c1.452 6.078 2.245 7.268 8.186 10.835 3.565 2.247 6.338 4.757 5.942 5.682-4.49 12.157-4.49 10.835 0 22.992.396.925-2.245 3.303-5.678 5.55-5.281 3.303-6.734 5.02-8.45 10.306l-1.98 6.342-6.999-.396c-6.206-.264-7.658.132-12.28 3.832l-5.281 4.228-5.15-4.228c-4.621-3.7-6.073-4.096-12.147-3.832l-6.998.396-1.98-6.342c-1.717-5.285-3.17-7.003-8.451-10.307-3.433-2.246-6.074-4.624-5.678-5.55C9.689 46.15 9.689 46.15 7.312 39.94c-1.188-3.436-1.848-6.607-1.584-7.268.396-.528 3.169-2.378 5.942-3.964 4.225-2.378 5.677-4.228 6.734-8.324 2.244-8.193 3.3-9.118 10.959-8.193 6.074.66 7.13.397 11.355-3.171 2.51-2.114 4.886-3.964 5.282-3.964.396 0 2.905 1.85 5.546 3.964Z"/><path fill="#fff" d="M33.456 19.193C22.63 24.875 16.951 34.125 16.951 46.017c0 17.177 11.884 29.07 29.049 29.07s29.049-11.893 29.049-29.07c0-11.892-5.546-21.142-16.11-26.56-6.205-3.17-19.805-3.303-25.483-.264Zm24.956 6.21c15.316 8.986 15.184 32.77-.264 41.491-7.13 3.964-17.166 3.964-24.296 0-15.448-8.72-15.58-32.24-.264-41.49 7.13-4.36 17.43-4.36 24.824 0Z"/><path fill="#fff" d="m51.017 42.978-7.658 7.531-5.017-4.889c-5.414-5.285-8.187-6.21-8.187-2.51 0 2.51 10.3 13.478 12.676 13.478 2.245 0 19.014-16.914 19.014-19.16 0-3.7-3.301-1.982-10.828 5.55Z"/></svg>