<svg width="92" height="92" viewBox="0 0 92 92" fill="none" xmlns="http://www.w3.org/2000/svg">
<path d="M39.266 3.33713C35.5689 6.50838 33.9844 6.90479 27.5145 6.64052C20.6484 6.24411 19.5921 6.50838 17.0834 9.67963C15.6309 11.6617 14.0465 15.0972 13.6503 17.4756C12.9901 20.6469 11.4057 22.6289 6.91634 25.2716C3.61535 27.2536 0.710483 29.7642 0.182326 31.0856C-0.345832 32.2748 0.314365 36.1067 1.63476 39.6744C3.74739 45.7526 3.74739 46.5454 1.63476 52.0951C-1.13807 59.4947 0.182326 63.0623 7.70857 67.2907C12.0659 69.8012 13.3863 71.3869 14.4426 75.8795C16.5552 84.0719 19.4601 86.186 27.3824 85.2611C33.1922 84.6004 34.5126 84.8647 38.8699 88.4323C44.9437 93.1892 47.0563 93.1892 53.1301 88.4323C57.4874 84.8647 58.8078 84.6004 64.6176 85.2611C72.5399 86.186 75.4448 84.0719 77.5574 76.0116C78.6137 71.519 80.0662 69.8012 84.9516 66.8943C88.2526 64.7801 91.2895 62.2695 91.8177 60.9482C92.3458 59.759 91.6856 55.927 90.3652 52.3594C88.2526 46.4133 88.2526 45.6205 90.3652 39.6744C91.6856 36.1067 92.3458 32.2748 91.8177 31.0856C91.2895 29.7642 88.2526 27.2536 84.9516 25.1395C80.0662 22.2325 78.6137 20.5147 77.5574 16.0221C75.4448 7.96187 72.5399 5.84771 64.4855 6.64052C58.5437 7.3012 57.2233 6.90479 52.9981 3.6014C47.0563 -1.15547 44.6796 -1.15547 39.266 3.33713ZM51.5457 9.01896C56.035 12.7187 56.9593 12.983 63.5612 12.1902L70.6914 11.3974L72.4079 18.0042C73.8603 24.0824 74.6525 25.2716 80.5943 28.8393C84.1594 31.0856 86.9322 33.5961 86.5361 34.5211C82.0468 46.6776 82.0468 45.3562 86.5361 57.5127C86.9322 58.4376 84.2914 60.816 80.8584 63.0623C75.5768 66.3657 74.1244 68.0835 72.4079 73.3689L70.4273 79.7114L63.4292 79.315C57.2233 79.0507 55.7709 79.4471 51.1495 83.1469L45.868 87.3753L40.7184 83.1469C36.097 79.4471 34.6446 79.0507 28.5708 79.315L21.5727 79.7114L19.5921 73.3689C17.8756 68.0835 16.4232 66.3657 11.1416 63.0623C7.70857 60.816 5.06778 58.4376 5.4639 57.5127C9.68916 46.149 9.68916 46.149 7.31245 39.9386C6.1241 36.5031 5.4639 33.3319 5.72798 32.6712C6.1241 32.1427 8.89693 30.2928 11.6698 28.7071C15.895 26.3287 17.3474 24.4788 18.4038 20.3826C20.6484 12.1902 21.7047 11.2653 29.363 12.1902C35.4368 12.8509 36.4932 12.5866 40.7184 9.01896C43.2272 6.90479 45.6039 5.05489 46 5.05489C46.3961 5.05489 48.9049 6.90479 51.5457 9.01896Z" fill="white"/>
<path d="M33.4562 19.1934C22.629 24.8752 16.9513 34.1247 16.9513 46.0169C16.9513 63.1945 28.8348 75.0867 46 75.0867C63.1651 75.0867 75.0486 63.1945 75.0486 46.0169C75.0486 34.1247 69.503 24.8752 58.9398 19.4577C52.734 16.2864 39.1339 16.1543 33.4562 19.1934ZM58.4117 25.4037C73.7282 34.389 73.5962 58.1733 58.1476 66.8943C51.0175 70.8583 40.9825 70.8583 33.8523 66.8943C18.4037 58.1733 18.2717 34.6532 33.5883 25.4037C40.7184 21.0433 51.0175 21.0433 58.4117 25.4037Z" fill="white"/>
<path d="M51.0175 42.9777L43.3592 50.5094L38.3417 45.6204C32.9281 40.335 30.1553 39.41 30.1553 43.1098C30.1553 45.6204 40.4543 56.5876 42.8311 56.5876C45.0757 56.5876 61.8447 39.6743 61.8447 37.428C61.8447 33.7282 58.5437 35.446 51.0175 42.9777Z" fill="white"/>
</svg>
