<?xml version="1.0" standalone="no"?>
<!DOCTYPE svg PUBLIC "-//W3C//DTD SVG 20010904//EN"
 "http://www.w3.org/TR/2001/REC-SVG-20010904/DTD/svg10.dtd">
<svg version="1.0" xmlns="http://www.w3.org/2000/svg"
 width="492.000000pt" height="492.000000pt" viewBox="0 0 492.000000 492.000000"
 preserveAspectRatio="xMidYMid meet">
<metadata>
Created by potrace 1.14, written by Peter Selinger 2001-2017
</metadata>
<g transform="translate(0.000000,492.000000) scale(0.100000,-0.100000)"
fill="#000000" stroke="none">
<path d="M4865 4711 c-3 -5 -18 -12 -35 -16 -25 -5 -29 -12 -32 -42 -2 -30 -8
-38 -31 -46 -25 -8 -33 -5 -60 21 -123 119 -337 92 -420 -51 -13 -23 -27 -53
-30 -67 -5 -19 -20 -31 -57 -47 l-50 -21 0 -147 c0 -113 3 -145 13 -141 6 2
29 10 50 17 29 10 39 19 44 40 5 28 6 28 22 8 14 -18 20 -19 43 -9 22 11 33 9
71 -9 154 -75 332 3 381 166 15 49 22 60 32 52 17 -14 66 -8 72 9 3 11 0 12
-17 2 -29 -15 -55 4 -46 34 4 12 6 63 5 114 l-1 93 30 12 c17 6 31 17 31 24 0
15 -6 17 -15 4z m-278 -36 c45 -13 93 -48 82 -59 -8 -8 -359 -65 -359 -59 0 2
6 16 14 31 18 35 69 72 120 88 55 17 83 17 143 -1z m213 -91 c0 -22 -54 -190
-63 -196 -28 -18 -46 -8 -53 30 l-8 37 -11 -45 c-7 -31 -18 -49 -35 -57 -30
-15 -34 -11 -56 80 -18 74 -14 86 29 87 13 0 17 -8 17 -35 0 -50 17 -43 25 11
5 34 12 47 28 53 25 10 37 -2 37 -36 0 -38 17 -26 24 17 6 37 25 59 54 60 6 0
12 -2 12 -6z m-430 -117 c0 -19 -3 -75 -6 -125 -7 -88 -8 -91 -35 -101 -31
-11 -36 -5 -75 74 l-19 40 -5 -80 c-5 -78 -6 -80 -32 -83 l-27 -3 6 118 c6
125 13 143 58 143 15 0 28 -14 47 -52 l27 -53 0 68 c1 61 3 69 24 77 34 14 37
12 37 -23z m164 7 c31 -31 10 -81 -46 -110 -16 -8 -27 -18 -25 -21 3 -3 20 2
38 11 41 20 39 21 39 -9 0 -28 -42 -55 -87 -55 -46 0 -58 14 -58 67 0 55 27
100 73 120 36 16 48 16 66 -3z m126 -229 c0 -2 -18 -14 -40 -25 -29 -15 -57
-20 -107 -19 l-68 1 75 13 c41 7 86 18 100 23 28 12 40 14 40 7z"/>
<path d="M4456 4415 c-4 -13 -2 -14 14 -5 23 13 26 20 6 20 -8 0 -16 -7 -20
-15z"/>
<path d="M4865 4520 c-3 -5 -1 -10 4 -10 6 0 11 5 11 10 0 6 -2 10 -4 10 -3 0
-8 -4 -11 -10z"/>
<path d="M2130 4379 c-74 -5 -162 -16 -195 -23 -108 -26 -229 -63 -277 -84
-26 -12 -49 -22 -53 -22 -15 0 -252 -118 -332 -166 -106 -63 -138 -95 -42 -41
35 20 91 48 124 62 51 23 57 24 42 8 -9 -11 -15 -22 -13 -24 2 -2 9 -69 16
-149 7 -80 17 -151 22 -157 6 -7 8 -13 5 -13 -3 0 -1 -18 4 -40 12 -55 -10
-88 -120 -180 -49 -41 -88 -76 -87 -78 2 -1 30 4 62 13 42 11 70 26 99 54 101
97 352 224 535 270 47 12 101 26 120 31 80 22 318 34 443 22 118 -11 340 -56
422 -85 37 -13 46 -13 100 4 73 23 101 23 139 4 28 -15 31 -14 55 8 43 39 74
54 134 67 61 12 124 7 152 -14 14 -10 23 -6 56 25 22 20 54 43 70 49 16 7 28
18 26 24 -9 29 -227 164 -388 240 -337 159 -703 223 -1119 195z m584 -44 c65
-13 122 -28 125 -31 3 -4 -12 -3 -34 1 -307 56 -566 59 -863 9 -52 -9 -96 -14
-98 -11 -8 8 210 50 301 58 169 14 437 2 569 -26z m-347 -12 c-20 -2 -52 -2
-70 0 -17 2 0 4 38 4 39 0 53 -2 32 -4z m-540 -29 c-3 -3 -12 -4 -19 -1 -8 3
-5 6 6 6 11 1 17 -2 13 -5z"/>
<path d="M3935 4056 l-50 -11 -3 -289 -2 -288 36 7 c20 3 47 10 60 15 l24 10
0 285 c0 157 -3 285 -7 284 -5 0 -30 -6 -58 -13z"/>
<path d="M1134 3994 c-18 -14 -18 -15 4 -4 12 6 22 13 22 15 0 8 -5 6 -26 -11z"/>
<path d="M3635 3871 c-22 -10 -48 -27 -57 -37 -24 -27 -48 -88 -48 -120 0 -26
1 -26 46 -19 26 3 52 9 59 11 14 6 25 36 25 70 0 22 24 39 41 28 16 -10 9 -48
-14 -75 -12 -14 -44 -43 -71 -64 -67 -53 -86 -87 -86 -158 0 -64 10 -91 41
-107 27 -15 83 4 108 36 22 28 31 30 31 9 0 -18 4 -18 69 -3 l51 11 0 198 0
198 -26 20 c-34 27 -113 28 -169 2z m75 -272 c0 -56 -13 -89 -35 -89 -32 0
-30 86 2 123 26 28 33 20 33 -34z"/>
<path d="M2475 3810 c-18 -7 -19 -8 -2 -15 21 -9 50 1 42 15 -7 12 -13 12 -40
0z"/>
<path d="M2310 3800 c20 -13 123 -13 115 0 -3 6 -34 10 -68 10 -44 0 -58 -3
-47 -10z"/>
<path d="M3304 3797 c-73 -28 -114 -84 -114 -155 0 -60 11 -76 72 -101 86 -36
96 -42 102 -66 7 -29 -1 -52 -21 -60 -22 -8 -33 12 -33 58 0 42 2 41 -65 24
l-50 -13 -3 -57 c-3 -50 0 -60 23 -83 24 -24 32 -26 82 -21 76 8 141 49 171
107 46 91 19 155 -78 191 -62 23 -82 44 -73 80 6 23 34 33 45 17 4 -7 8 -28 8
-46 0 -21 4 -31 10 -27 6 4 32 12 58 18 46 12 47 13 50 53 2 29 -3 47 -18 67
-19 24 -28 27 -78 26 -31 0 -71 -6 -88 -12z"/>
<path d="M2540 3769 c-12 -8 -12 -12 -2 -16 10 -4 9 -8 -5 -18 -16 -12 -13
-14 22 -24 50 -14 65 -14 65 -1 0 6 10 10 23 11 18 0 15 4 -16 18 -21 10 -43
23 -50 30 -14 14 -18 14 -37 0z"/>
<path d="M4631 3754 c0 -11 3 -14 6 -6 3 7 2 16 -1 19 -3 4 -6 -2 -5 -13z"/>
<path d="M2074 3723 c-27 -12 -60 -22 -74 -22 -23 0 -23 1 -5 9 35 15 -4 11
-56 -6 -27 -9 -52 -14 -55 -11 -11 11 6 24 38 32 18 4 27 9 20 12 -18 7 -169
-43 -202 -67 -16 -11 -34 -20 -42 -20 -8 0 -24 -9 -36 -21 -13 -11 -28 -19
-34 -17 -6 2 6 15 25 28 20 13 33 28 31 32 -3 4 2 5 10 2 8 -3 19 3 26 15 10
20 9 20 -17 9 -80 -36 -281 -164 -271 -174 2 -1 36 6 77 16 129 33 151 34 151
13 0 -10 3 -14 8 -8 16 24 71 55 86 49 9 -3 13 -10 10 -15 -10 -17 24 -9 59
15 85 58 270 126 343 126 22 0 24 2 14 15 -16 19 -45 16 -106 -12z m-109 -33
c-3 -5 -12 -10 -18 -10 -7 0 -6 4 3 10 19 12 23 12 15 0z m-165 -90 c0 -5 -2
-10 -4 -10 -3 0 -8 5 -11 10 -3 6 -1 10 4 10 6 0 11 -4 11 -10z"/>
<path d="M3055 3739 c-16 -5 -42 -23 -57 -41 -20 -24 -28 -28 -28 -16 0 25
-10 27 -70 14 l-55 -12 -3 -220 c-1 -120 0 -224 2 -231 3 -8 15 -9 38 -3 18 4
45 11 60 14 l28 6 2 183 c3 180 3 182 26 185 21 3 22 0 22 -68 l0 -72 43 7
c92 16 89 12 85 126 -3 92 -5 103 -27 120 -26 21 -24 21 -66 8z"/>
<path d="M4621 3695 c-7 -19 -17 -35 -22 -35 -5 0 -9 -5 -9 -12 0 -6 9 -3 20
7 20 18 20 17 20 -9 0 -40 17 -66 55 -82 47 -19 62 -18 90 11 35 34 33 78 -4
116 -42 42 -123 40 -85 -2 21 -24 11 -49 -20 -49 -22 0 -25 4 -24 40 1 53 -5
57 -21 15z m135 -82 c-10 -10 -19 5 -10 18 6 11 8 11 12 0 2 -7 1 -15 -2 -18z"/>
<path d="M4461 3677 c0 -16 -6 -37 -12 -49 -6 -11 -8 -22 -5 -25 9 -10 27 49
23 76 -4 25 -4 25 -6 -2z"/>
<path d="M4415 3670 c-37 -21 -39 -44 -3 -48 22 -3 27 2 33 28 4 17 5 33 3 34
-1 2 -16 -4 -33 -14z"/>
<path d="M4500 3660 c0 -21 7 -25 27 -12 9 6 7 11 -7 20 -17 11 -20 10 -20 -8z"/>
<path d="M2643 3641 c-45 -12 -93 -42 -117 -74 -19 -26 -21 -44 -24 -185 -3
-148 -2 -159 18 -184 28 -37 75 -44 147 -23 42 12 68 28 96 56 34 37 37 44 37
100 0 53 -2 60 -17 55 -10 -3 -37 -10 -60 -16 -41 -10 -42 -12 -45 -57 -2 -30
-9 -50 -20 -57 -26 -16 -33 -1 -33 66 l0 61 85 21 85 21 2 85 c4 106 -11 130
-78 136 -24 1 -58 -1 -76 -5z m35 -128 c3 -34 0 -42 -17 -48 -30 -9 -41 2 -41
39 0 68 53 76 58 9z"/>
<path d="M4540 3630 c-21 -7 -21 -8 -5 -9 11 0 27 4 35 9 18 11 5 11 -30 0z"/>
<path d="M2040 3606 c-42 -11 -45 -14 -48 -49 -4 -41 -3 -42 67 -25 50 11 51
12 51 50 0 42 -1 42 -70 24z"/>
<path d="M4360 3592 c0 -4 7 -18 17 -31 16 -23 15 -25 -8 -44 -17 -15 -19 -18
-6 -14 10 4 20 7 23 7 2 0 11 15 20 33 17 31 16 31 -1 17 -17 -14 -18 -13 -12
4 5 12 3 23 -5 28 -16 10 -28 10 -28 0z"/>
<path d="M4513 3593 c-15 -5 -17 -29 -4 -37 4 -3 13 6 19 19 11 25 9 28 -15
18z"/>
<path d="M2398 3578 c-21 -6 -38 -13 -38 -16 -1 -29 -39 -334 -42 -337 -2 -3
-12 53 -22 123 -9 70 -19 144 -22 165 -5 29 -10 37 -22 33 -10 -3 -36 -10 -59
-16 -24 -6 -43 -17 -43 -24 0 -7 18 -103 40 -214 22 -110 40 -203 40 -207 0
-10 88 4 126 20 l30 12 37 224 c21 123 37 230 37 237 0 14 -10 14 -62 0z"/>
<path d="M4427 3543 c-14 -13 -6 -23 18 -23 18 0 23 4 19 15 -6 16 -26 20 -37
8z"/>
<path d="M2045 3496 l-50 -11 -3 -233 c-1 -140 1 -232 7 -232 5 0 32 5 60 12
l51 11 0 234 c0 128 -3 233 -7 232 -5 0 -30 -6 -58 -13z"/>
<path d="M1520 3486 l-45 -12 -5 -240 c-4 -184 -8 -245 -19 -257 -17 -21 -37
-22 -45 -1 -3 9 -6 119 -6 245 0 177 -3 229 -12 229 -7 0 -35 -6 -63 -13 l-50
-13 -3 -225 c-3 -243 3 -289 43 -315 75 -49 239 16 274 109 7 17 11 123 11
268 0 269 7 248 -80 225z"/>
<path d="M1699 3483 c-13 -16 -12 -17 4 -4 9 7 17 15 17 17 0 8 -8 3 -21 -13z"/>
<path d="M4280 3490 c-12 -8 -12 -11 3 -28 21 -23 21 -36 1 -53 -12 -10 -20
-10 -35 -1 -16 10 -20 10 -25 -1 -3 -8 -4 -18 -3 -23 1 -5 -5 -34 -14 -64 -9
-30 -28 -119 -43 -198 -16 -78 -31 -139 -34 -135 -4 5 -17 74 -30 156 -15 91
-29 152 -38 159 -11 10 -31 8 -91 -5 -173 -38 -257 -58 -278 -66 l-21 -10 18
-68 c10 -37 35 -126 55 -198 20 -71 50 -179 67 -240 16 -60 33 -114 38 -118 4
-5 52 -19 106 -31 127 -30 228 -60 332 -99 90 -34 89 -32 71 -117 -11 -51 -34
-75 -57 -61 -7 4 -36 8 -65 9 -61 3 -110 12 -117 22 -3 4 -47 10 -99 13 l-93
7 6 -28 c30 -142 30 -150 -2 -307 -59 -285 -93 -476 -87 -485 3 -6 17 -10 30
-10 38 0 329 71 342 84 6 6 23 67 36 136 84 419 288 1422 313 1538 3 15 12 22
28 22 40 0 76 37 76 76 0 49 -43 104 -81 104 -33 0 -35 -5 -14 -26 11 -12 12
-20 5 -35 -18 -33 -55 -21 -62 21 -4 21 -8 17 -31 -34 l-27 -59 -26 24 c-14
13 -34 40 -45 59 -39 73 -71 94 -109 70z m35 -139 c7 -12 -12 -24 -25 -16 -11
7 -4 25 10 25 5 0 11 -4 15 -9z m315 -21 c0 -5 -7 -10 -15 -10 -8 0 -15 5 -15
10 0 6 7 10 15 10 8 0 15 -4 15 -10z"/>
<path d="M4658 3473 c7 -3 16 -2 19 1 4 3 -2 6 -13 5 -11 0 -14 -3 -6 -6z"/>
<path d="M1142 3396 c-117 -126 -243 -297 -222 -304 6 -2 18 4 26 14 13 15 15
16 11 3 -4 -12 2 -18 23 -22 15 -4 39 -9 53 -12 22 -6 28 -1 52 48 15 30 37
65 47 78 11 13 6 -1 -11 -33 -35 -64 -38 -80 -16 -72 10 4 15 0 15 -12 0 -11
-4 -15 -8 -9 -11 15 -35 18 -30 3 2 -6 19 -13 36 -16 29 -3 34 1 47 31 7 18
21 39 29 46 12 10 15 41 15 153 1 77 3 144 6 148 3 5 1 11 -4 14 -5 3 -36 -23
-69 -58z m29 -24 c-11 -16 -28 -35 -38 -43 -9 -8 -2 5 17 29 38 48 52 57 21
14z m-18 -225 c-10 -20 -21 -37 -25 -37 -12 0 -10 5 13 45 27 45 34 41 12 -8z"/>
<path d="M1853 3453 c-13 -2 -36 -18 -53 -34 -23 -24 -30 -27 -30 -13 0 14 -6
16 -39 10 -22 -3 -51 -10 -65 -16 l-26 -10 0 -225 c0 -173 3 -225 13 -225 6 0
35 6 62 13 l50 13 3 177 c2 160 4 177 21 186 10 6 21 7 25 4 3 -3 6 -85 6
-180 l0 -174 38 7 c20 4 48 10 62 14 l25 6 0 208 c0 206 0 208 -24 227 -23 19
-27 20 -68 12z"/>
<path d="M3545 3194 c-38 -14 -78 -48 -87 -76 -3 -9 -13 -4 -29 16 l-25 28
-114 -25 c-63 -15 -149 -35 -190 -45 l-75 -18 -3 -211 -2 -212 204 -3 c112 -2
207 -5 209 -8 3 -3 3 -54 0 -113 -3 -60 -9 -105 -12 -100 -3 4 -92 7 -197 5
l-191 -3 -7 -76 c-3 -42 -6 -210 -6 -373 0 -239 3 -300 14 -309 10 -8 45 -4
142 19 168 39 258 62 264 68 3 2 7 207 10 455 5 444 5 453 28 498 29 59 58 85
118 108 l49 19 0 183 0 184 -30 2 c-16 1 -48 -4 -70 -13z"/>
<path d="M1197 3103 c-4 -3 -7 -11 -7 -17 0 -6 5 -5 12 2 6 6 9 14 7 17 -3 3
-9 2 -12 -2z"/>
<path d="M1195 3049 c-4 -12 -2 -26 4 -32 8 -8 11 -2 11 21 0 37 -6 41 -15 11z"/>
<path d="M2880 3041 c-48 -15 -88 -41 -113 -72 -24 -31 -25 -31 -32 -10 -12
40 -33 40 -185 4 -80 -19 -163 -40 -185 -46 l-40 -12 -3 -160 c-1 -87 -1 -164
2 -171 3 -8 31 -6 103 8 136 26 290 48 341 48 l44 0 -25 -30 c-31 -36 -45 -77
-55 -155 l-7 -60 -195 -3 c-107 -2 -197 -6 -200 -9 -3 -2 -5 -199 -5 -436 0
-410 1 -432 18 -435 22 -4 377 77 394 90 9 7 13 125 15 457 l3 447 30 60 c28
54 37 62 98 92 l67 34 0 178 c0 153 -2 179 -16 184 -18 7 -21 7 -54 -3z"/>
<path d="M730 2886 c-30 -7 -136 -32 -235 -55 -208 -48 -247 -60 -257 -75 -4
-6 -8 -399 -8 -873 0 -830 1 -863 19 -872 13 -8 47 -3 122 15 57 14 163 38
234 54 188 43 261 65 340 107 150 78 231 161 286 293 45 107 62 266 38 370
-10 47 -64 136 -87 145 -7 3 -10 1 -7 -4 3 -5 -5 -13 -17 -17 -13 -3 -46 -22
-74 -40 -28 -18 -72 -43 -99 -55 -27 -12 -58 -30 -69 -40 -11 -11 -28 -19 -37
-19 -10 0 -24 -6 -31 -13 -7 -8 -23 -19 -35 -25 -20 -11 -22 -21 -25 -132 -3
-119 -3 -120 -34 -151 -18 -17 -36 -29 -40 -26 -5 3 -7 85 -4 183 l5 178 25 6
c22 5 23 7 7 16 -15 9 -9 16 45 55 35 25 105 72 155 104 51 33 93 65 93 72 0
6 15 21 34 32 49 30 121 111 149 167 35 71 48 135 49 255 1 98 -1 112 -26 163
-32 65 -96 124 -175 163 -50 25 -68 28 -171 30 -68 1 -138 -3 -170 -11z m48
-499 l3 -128 -33 -32 -33 -32 -3 150 c-1 82 0 155 3 163 3 8 16 12 32 10 l28
-3 3 -128z m-88 -581 c0 -13 -3 -44 -6 -69 -6 -39 -11 -47 -36 -56 -16 -6 -42
-19 -57 -31 -16 -11 -36 -20 -45 -20 -8 0 -19 -6 -23 -13 -4 -7 -21 -17 -38
-23 -16 -6 -29 -16 -28 -22 2 -7 -8 -12 -21 -12 -14 0 -27 -4 -31 -9 -3 -6
-19 -17 -36 -25 l-31 -16 24 33 c27 34 308 286 321 287 4 0 7 -11 7 -24z"/>
<path d="M1825 2790 c-193 -31 -369 -154 -443 -308 l-37 -77 0 -410 0 -410 29
-62 c52 -113 152 -174 284 -174 198 0 414 107 510 250 54 82 74 169 70 316
l-3 110 -28 3 c-27 3 -229 -29 -314 -50 l-41 -10 -4 -94 c-3 -98 -19 -134 -52
-121 -14 6 -16 33 -16 197 0 191 6 230 35 230 28 0 410 93 423 103 22 17 16
212 -10 287 -38 113 -137 197 -258 220 -58 11 -72 11 -145 0z m405 -349 c0
-67 -4 -102 -12 -107 -7 -4 -46 -9 -87 -11 -42 -2 -78 -8 -81 -12 -3 -5 -41
-11 -85 -14 -44 -3 -105 -7 -135 -10 -30 -3 -88 -7 -127 -8 -40 -1 -73 -5 -73
-10 0 -5 -19 -9 -42 -10 -24 0 -80 -6 -125 -13 -46 -6 -83 -11 -83 -9 0 6 154
78 234 109 50 19 101 39 114 44 33 14 32 15 32 -35 0 -73 17 -52 22 26 3 61 7
74 28 91 l25 20 9 -26 c11 -30 19 -31 77 -10 58 22 269 82 292 83 15 1 17 -10
17 -98z"/>
<path d="M3626 2599 c-3 -17 -6 -170 -6 -339 0 -261 2 -309 15 -320 8 -7 15
-19 15 -27 0 -9 -6 -13 -15 -9 -10 4 -15 -1 -15 -15 0 -11 7 -22 15 -25 9 -4
15 -19 15 -41 0 -29 -3 -33 -14 -24 -11 9 -14 1 -20 -46 -6 -54 -5 -59 22 -86
l29 -29 -4 89 c-2 48 -7 271 -10 496 -3 224 -9 407 -13 407 -4 0 -10 -14 -14
-31z"/>
<path d="M3675 2455 c-9 -46 2 -602 13 -660 7 -37 10 -30 35 95 59 286 56 252
26 370 -15 58 -36 134 -47 170 l-20 65 -7 -40z"/>
<path d="M3557 1625 c-21 -25 -44 -45 -51 -45 -7 0 -60 -47 -117 -103 -103
-103 -191 -169 -321 -241 -89 -49 -88 -39 1 13 105 62 228 156 309 239 40 41
72 75 70 77 -5 5 -151 -25 -157 -32 -3 -3 6 -3 22 1 27 6 33 0 19 -20 -14 -20
-118 -100 -180 -138 -60 -36 -77 -43 -137 -51 l-29 -5 37 27 c31 22 47 43 33
43 -2 0 -42 -18 -89 -40 -96 -45 -119 -50 -92 -20 10 11 20 18 23 16 5 -5 49
21 162 97 41 27 64 46 50 42 -14 -5 -52 -9 -85 -9 -33 -1 -62 -4 -65 -7 -13
-16 -136 -71 -231 -102 -160 -53 -277 -65 -539 -54 -48 2 -55 -1 -58 -18 -2
-11 -11 -26 -20 -32 -14 -12 -14 -13 0 -13 8 0 21 -7 28 -15 11 -13 7 -15 -23
-15 -20 0 -47 4 -61 10 -19 7 -36 5 -63 -7 -48 -20 -198 -51 -284 -59 -111
-11 -247 21 -342 79 l-50 31 -24 -30 c-42 -50 -86 -97 -148 -156 -86 -83 -95
-93 -95 -113 0 -10 -3 -15 -7 -12 -10 10 -33 -13 -33 -33 0 -10 -11 -27 -25
-37 -14 -10 -26 -30 -27 -45 -1 -16 -5 -28 -9 -28 -3 0 -11 -10 -18 -22 -8
-16 -10 -17 -6 -4 5 16 3 17 -9 6 -13 -10 -26 -2 -78 47 -38 36 -54 47 -41 28
39 -57 246 -234 367 -315 112 -75 343 -191 466 -234 460 -163 915 -166 1415
-10 210 66 461 193 551 279 28 28 74 69 100 91 27 23 75 66 106 95 55 51 57
56 52 92 -4 20 -10 37 -15 37 -5 0 -15 24 -24 53 -15 52 -15 55 11 123 24 61
63 197 64 217 0 4 -15 7 -33 7 -19 0 -55 11 -81 24 l-47 24 -57 -77 c-75 -101
-120 -148 -227 -239 -130 -111 -227 -175 -348 -229 -29 -13 -29 -8 -2 27 6 8
21 48 33 89 12 41 32 85 44 98 20 21 14 33 -7 15 -12 -11 -89 -38 -130 -46
-25 -5 -21 -1 23 26 177 109 390 255 470 322 51 43 96 76 99 72 6 -6 -3 -18
-77 -100 l-35 -40 45 35 c25 19 62 51 82 73 l37 39 -21 66 c-11 36 -29 83 -39
103 -26 51 -24 56 10 24 20 -19 31 -24 36 -16 6 10 -49 69 -65 69 -3 0 -22
-20 -43 -44z m-56 -78 c-10 -9 -11 -8 -5 6 3 10 9 15 12 12 3 -3 0 -11 -7 -18z
m-2 -49 c-31 -46 -69 -86 -104 -111 -26 -19 -24 -14 14 32 49 58 100 111 107
111 3 0 -5 -15 -17 -32z m-688 -208 c-24 -11 -48 -20 -55 -19 -15 1 66 38 84
39 8 0 -5 -9 -29 -20z m-91 -30 c-14 -4 -36 -8 -50 -8 l-25 0 25 8 c14 4 36 8
50 8 l25 0 -25 -8z m-90 -17 c-8 -3 -18 -11 -22 -17 -5 -7 -8 -6 -8 3 0 11 -3
11 -15 1 -9 -8 -15 -8 -15 -2 0 13 18 20 50 20 15 0 19 -2 10 -5z m-275 -63
c16 -7 12 -9 -18 -9 -23 -1 -36 3 -32 9 7 12 23 12 50 0z m122 4 c-3 -3 -12
-4 -19 -1 -8 3 -5 6 6 6 11 1 17 -2 13 -5z m-1087 -14 c0 -5 17 -18 38 -28 20
-11 73 -39 118 -64 44 -24 105 -54 135 -67 30 -12 70 -31 89 -41 92 -50 -100
1 -230 61 -36 17 -95 48 -131 70 -53 32 -66 44 -62 60 5 19 43 28 43 9z m932
-169 c20 -24 14 -31 -28 -31 -26 0 -33 5 -36 25 -5 22 -2 25 21 25 15 0 34 -9
43 -19z m194 12 c-10 -11 -56 -11 -56 -1 0 4 14 8 32 8 17 0 28 -3 24 -7z
m-66 -13 c0 -5 15 -14 33 -19 29 -8 27 -9 -25 -10 -42 -1 -58 3 -58 12 0 8 3
17 7 20 10 11 43 8 43 -3z m339 -117 c-95 -126 -315 -196 -529 -167 -47 7
-105 20 -130 30 -52 20 -169 94 -190 119 -16 20 -38 20 250 -5 160 -14 342 -7
490 20 58 10 109 19 114 19 5 1 3 -7 -5 -16z"/>
<path d="M3215 1516 c-22 -6 -35 -14 -30 -17 6 -3 30 2 55 12 51 20 35 24 -25
5z"/>
<path d="M2898 1493 c-18 -5 -26 -33 -9 -33 5 0 19 9 32 20 24 19 16 24 -23
13z"/>
</g>
</svg>
