<?xml version="1.0" encoding="utf-8"?>
<!-- Generator: Adobe Illustrator 22.0.1, SVG Export Plug-In . SVG Version: 6.00 Build 0)  -->
<svg version="1.2" baseProfile="tiny" id="Слой_1"
	 xmlns="http://www.w3.org/2000/svg" xmlns:xlink="http://www.w3.org/1999/xlink" x="0px" y="0px" viewBox="0 0 126.5 30.5"
	 xml:space="preserve">
<polygon fill="#0760A3" points="22.9,23.7 25.7,7 30.3,7 27.4,23.7 "/>
<path fill="#0760A3" d="M44,7.4c-0.9-0.3-2.3-0.7-4.1-0.7c-4.5,0-7.7,2.3-7.7,5.5c0,2.4,2.3,3.7,4,4.6c1.8,0.8,2.4,1.3,2.4,2.1
	c0,1.1-1.4,1.6-2.7,1.6c-1.8,0-2.8-0.3-4.3-0.9L31,19.3L30.4,23c1.1,0.5,3,0.9,5.1,0.9c4.8,0,7.9-2.2,8-5.7c0-1.9-1.2-3.4-3.8-4.6
	c-1.6-0.8-2.6-1.3-2.6-2.1c0-0.7,0.8-1.5,2.6-1.5c1.5,0,2.6,0.3,3.4,0.6l0.4,0.2L44,7.4L44,7.4z"/>
<path fill="#0760A3" d="M55.8,7h-3.5c-1.1,0-1.9,0.3-2.4,1.4L43,23.8h4.8c0,0,0.8-2.1,1-2.5c0.5,0,5.2,0,5.9,0
	c0.1,0.6,0.6,2.5,0.6,2.5h4.2L55.8,7L55.8,7z M50.1,17.8c0.4-0.9,1.8-4.7,1.8-4.7s0.4-1,0.6-1.6l0.3,1.4c0,0,0.9,4,1.1,4.8h-3.8
	V17.8z"/>
<path fill="#0760A3" d="M19,7l-4.5,11.4L14,16.1c-0.8-2.7-3.4-5.6-6.3-7l4.1,14.7h4.8L23.9,7H19L19,7z"/>
<path fill="#FAA832" d="M10.4,7H3v0.4c5.7,1.4,9.5,4.7,11.1,8.8l-1.6-7.7C12.2,7.4,11.4,7,10.4,7L10.4,7z"/>
<polygon fill="#F26C36" points="102.2,26.4 89.8,26.4 89.8,4.2 102.2,4.2 "/>
<path fill="#E53338" d="M90.6,15.3c0-4.5,2.1-8.5,5.4-11.1c-2.4-1.9-5.4-3-8.7-3c-7.8,0-14.2,6.3-14.2,14.2
	c0,7.8,6.3,14.2,14.2,14.2c3.3,0,6.3-1.1,8.7-3C92.7,23.9,90.6,19.8,90.6,15.3L90.6,15.3z"/>
<path fill="#F9A133" d="M118.9,15.3c0,7.8-6.3,14.2-14.2,14.2c-3.3,0-6.3-1.1-8.7-3c3.3-2.6,5.4-6.6,5.4-11.1S99.3,6.9,96,4.3
	c2.4-1.9,5.4-3,8.7-3C112.6,1.2,118.9,7.5,118.9,15.3L118.9,15.3z"/>
<path fill="#FFFFFF" d="M113.6,16c0-0.7,0.4-1.3,1.2-1.3c0.7,0,1.1,0.5,1.1,1.3c0,0.7-0.5,1.3-1.1,1.3C114,17.3,113.6,16.7,113.6,16
	L113.6,16z M116.6,16v-3.4h-0.8v2c-0.3-0.3-0.7-0.6-1.2-0.6c-1.1,0-1.9,0.8-1.9,2c0,1.1,0.8,2,1.9,2c0.5,0,1-0.2,1.2-0.6v0.5h0.8V16
	L116.6,16z M106,16c0-0.7,0.4-1.3,1.2-1.3c0.7,0,1.1,0.5,1.1,1.3c0,0.7-0.5,1.3-1.1,1.3C106.4,17.3,106,16.7,106,16L106,16z M109,16
	v-1.9h-0.8v0.5c-0.3-0.3-0.7-0.6-1.2-0.6c-1.1,0-1.9,0.8-1.9,2c0,1.1,0.8,2,1.9,2c0.5,0,1-0.2,1.2-0.6v0.5h0.8V16L109,16z
	 M111.9,14.1c-0.5,0-0.8,0.2-1,0.6v-0.5h-0.7V18h0.8v-2.1c0-0.6,0.3-1,0.8-1c0.2,0,0.3,0,0.5,0.1l0.3-0.7
	C112.3,14.1,112.1,14.1,111.9,14.1L111.9,14.1z M82.9,16c0-0.7,0.4-1.3,1.2-1.3c0.7,0,1.1,0.5,1.1,1.3c0,0.7-0.5,1.3-1.1,1.3
	C83.3,17.3,82.9,16.7,82.9,16L82.9,16z M85.9,16v-1.9h-0.8v0.5c-0.3-0.3-0.7-0.6-1.2-0.6c-1.1,0-1.9,0.8-1.9,2c0,1.1,0.8,2,1.9,2
	c0.5,0,1-0.2,1.2-0.6v0.5h0.8V16L85.9,16z M96.1,14.8c0.6,0,0.9,0.4,1,1h-2C95.1,15.2,95.5,14.8,96.1,14.8L96.1,14.8z M96.1,14.1
	c-1.1,0-1.9,0.8-1.9,2s0.8,2,1.9,2c0.6,0,1.1-0.1,1.5-0.5L97.2,17c-0.3,0.3-0.7,0.4-1.1,0.4c-0.5,0-1.1-0.3-1.2-1h2.8
	c0-0.1,0-0.2,0-0.3C97.9,14.8,97.2,14.1,96.1,14.1L96.1,14.1z M101.4,16c0,1.1,0.8,2,2,2c0.6,0,0.9-0.1,1.4-0.4l-0.4-0.6
	c-0.3,0.2-0.6,0.3-1,0.3c-0.7,0-1.2-0.5-1.2-1.3s0.5-1.3,1.2-1.3c0.4,0,0.7,0.1,1,0.3l0.4-0.6c-0.4-0.3-0.8-0.4-1.4-0.4
	C102.2,14.1,101.4,14.9,101.4,16L101.4,16z M90,14.4c-0.4-0.3-0.9-0.4-1.5-0.4c-1,0-1.5,0.4-1.5,1.2c0,0.6,0.4,1,1.3,1.1l0.4,0.1
	c0.4,0.1,0.7,0.2,0.7,0.4c0,0.3-0.3,0.5-0.9,0.5s-1-0.2-1.3-0.4l-0.4,0.6c0.6,0.4,1.2,0.5,1.6,0.5c1.1,0,1.7-0.5,1.7-1.2
	s-0.5-1-1.3-1.1l-0.4-0.1c-0.4,0-0.7-0.2-0.7-0.4c0-0.3,0.3-0.5,0.7-0.5c0.5,0,0.9,0.2,1.2,0.3L90,14.4L90,14.4z M100.5,14.1
	c-0.5,0-0.8,0.2-1,0.6v-0.5h-0.7V18h0.8v-2.1c0-0.6,0.3-1,0.8-1c0.2,0,0.3,0,0.5,0.1l0.3-0.7C100.9,14.1,100.7,14.1,100.5,14.1
	L100.5,14.1z M93.6,14.1h-1.4V13h-0.8v1.1h-0.8v0.7h0.8v1.8c0,0.9,0.3,1.4,1.3,1.4c0.4,0,0.8-0.1,1-0.3L93.5,17
	c-0.2,0.1-0.5,0.2-0.7,0.2c-0.4,0-0.6-0.3-0.6-0.6v-1.8h1.4L93.6,14.1L93.6,14.1z M81.3,17.9v-2.4c0-0.9-0.5-1.5-1.4-1.5
	c-0.5,0-1,0.1-1.3,0.7c-0.3-0.4-0.7-0.7-1.2-0.7c-0.4,0-0.8,0.1-1.1,0.6v-0.5h-0.8v3.8h0.8v-2.2c0-0.7,0.4-1,1-1
	c0.5,0,0.8,0.4,0.8,1v2.2h0.8v-2.2c0-0.7,0.4-1,1-1s0.9,0.4,0.9,1v2.2H81.3L81.3,17.9z"/>
</svg>
